<?xml version="1.0" encoding="utf-8"?>
<!-- Generator: Adobe Illustrator 19.1.0, SVG Export Plug-In . SVG Version: 6.00 Build 0)  -->
<svg version="1.1" id="Layer_1" xmlns="http://www.w3.org/2000/svg" xmlns:xlink="http://www.w3.org/1999/xlink" x="0px" y="0px"
	 viewBox="0 0 199 70" style="enable-background:new 0 0 199 70;" xml:space="preserve">
<style type="text/css">
	.st0{fill:#080100;}
	.st1{fill:none;stroke:#FFFFFF;stroke-width:2;stroke-miterlimit:10;}
	.st2{fill:#FFFFFF;}
	.st3{fill:none;stroke:#FFFFFF;stroke-width:2;stroke-linecap:round;stroke-miterlimit:10;}
	.st4{fill:none;stroke:#FFFFFF;stroke-width:2;stroke-linecap:round;stroke-linejoin:round;stroke-miterlimit:10;}
	.st5{fill:#231F20;}
	.st6{fill:url(#SVGID_5_);stroke:#FFFFFF;stroke-width:2;stroke-miterlimit:10;}
	.st7{fill:url(#SVGID_6_);}
	.st8{fill:url(#SVGID_7_);}
	.st9{fill:url(#SVGID_8_);}
	.st10{fill:url(#SVGID_9_);}
	.st11{fill:url(#SVGID_10_);}
	.st12{fill:none;stroke:#FFFFFF;stroke-miterlimit:10;}
	.st13{fill:#1C75BC;}
	.st14{fill:#EAEAEA;}
	.st15{fill:#EF4136;}
	.st16{fill:#006838;stroke:#231F20;stroke-linecap:round;stroke-linejoin:round;stroke-miterlimit:10;}
	.st17{fill:#ED1C24;}
	.st18{fill:#006838;}
	.st19{fill:#FFFFFF;stroke:#231F20;stroke-linecap:round;stroke-miterlimit:10;}
	.st20{fill:#FFDE17;}
	.st21{fill:#C49A6C;}
	.st22{fill:#C2B59B;}
	.st23{fill:#A52C38;}
</style>
<g>
	<g>
		<path class="st2" d="M55.1,35.9c-3.9,0-7.1-3.2-7.1-7.1s3.2-7.1,7.1-7.1s7.1,3.2,7.1,7.1S59,35.9,55.1,35.9z M55.1,23.7
			c-2.8,0-5.1,2.3-5.1,5.1s2.3,5.1,5.1,5.1c2.8,0,5.1-2.3,5.1-5.1S57.9,23.7,55.1,23.7z"/>
	</g>
	<g>
		<path class="st2" d="M43,28.9c-2.9,0-5.2-2.3-5.2-5.2s2.3-5.2,5.2-5.2s5.2,2.3,5.2,5.2S45.9,28.9,43,28.9z M43,20.5
			c-1.8,0-3.2,1.4-3.2,3.2s1.4,3.2,3.2,3.2c1.8,0,3.2-1.4,3.2-3.2S44.8,20.5,43,20.5z"/>
	</g>
	<g>
		<ellipse class="st2" cx="42.4" cy="23.3" rx="1.5" ry="1.5"/>
	</g>
	<g>
		<path class="st2" d="M42,50.1c-1.9,0-3.6-0.2-5-0.5c-6.1-1-11.8-3.2-17.1-6.3l-0.8-0.5c-1.7-1-3.3-2-5.1-2.3
			c-1.8-0.3-4.1,0.3-4.8,2C9,43,8.9,43.6,8.8,44.2c-0.1,1.1-0.3,2.3-1.1,3.2c-0.7,0.8-1.8,1.3-3,1.2c-1.4-0.1-2.8-0.8-3.6-1.9
			c-1.2-1.6-1.3-4-0.5-6.5c1.4-4.3,5.1-7.7,9.4-8.8c4.4-1.1,8.9,0.1,12.3,1.4c1,0.4,2,0.7,3,1.1c2.7,1,5.4,2.1,8.2,2.5
			c1.9,0.3,8.5,0.9,11.9-4.3c0.3-0.5,0.9-0.6,1.4-0.3c0.5,0.3,0.6,0.9,0.3,1.4c-4.1,6.3-11.7,5.6-13.9,5.2c-3-0.5-5.9-1.6-8.6-2.7
			c-1-0.4-1.9-0.8-2.9-1.1c-3.1-1.1-7.3-2.3-11.1-1.3c-3.7,0.9-6.8,3.9-8,7.5c-0.3,0.9-0.8,3.1,0.3,4.7c0.4,0.6,1.2,1.1,2.1,1.1
			c0.3,0,1,0,1.4-0.5c0.4-0.5,0.6-1.3,0.7-2.2c0.1-0.7,0.2-1.5,0.5-2.3c1.1-2.7,4.4-3.6,7-3.2c2.2,0.4,4,1.5,5.8,2.6l0.8,0.5
			c5.1,3,10.6,5,16.4,6c4.5,0.8,7.8,0.6,10.5-0.7c2.9-1.4,5.3-4.7,4.5-8c-0.1-0.5,0.2-1.1,0.7-1.2c0.5-0.1,1.1,0.2,1.2,0.7
			c1.1,4.3-2,8.6-5.6,10.3C46.5,49.7,44.2,50.1,42,50.1z"/>
	</g>
	<g>
		<path class="st2" d="M30.2,37.7c-0.5,0-0.9-0.3-1-0.8c-0.1-0.5,0.3-1.1,0.8-1.1c0.2,0,0.3,0,0.4-0.1l0.2-0.2
			c1.9-1.9,3.6-2.2,5.3-2.5c1.6-0.3,3.4-0.5,5.6-2.5c0.4-0.4,1-0.3,1.4,0.1c0.4,0.4,0.3,1-0.1,1.4c-2.7,2.3-4.7,2.7-6.6,3
			c-1.6,0.3-2.8,0.4-4.2,1.9L31.9,37c-0.4,0.4-0.7,0.6-1.5,0.7C30.3,37.7,30.2,37.7,30.2,37.7z"/>
	</g>
	<g>
		<path class="st2" d="M23.5,35.3c-0.3,0-0.5-0.1-0.7-0.3c-5.6-5.9-7.6-13.9-5.2-21.3c2.2-6.9,8.4-11.9,14.8-12c2.8,0,5,1,6,2.8
			c0.7,1.3,0.7,2.9-0.1,4.4c-0.8,1.4-2.2,2.4-3.7,2.4c-0.6,0-1.1-0.1-1.7-0.1c-0.3,0-0.5-0.1-0.8-0.1c-3.4-0.3-6.2,3-6.6,6.2
			c-0.3,3.1,1.2,6.7,4.2,9.4c2.3,2.2,5.1,4.1,9.5,0.1c0.4-0.4,1-0.3,1.4,0.1c0.4,0.4,0.3,1-0.1,1.4c-6.2,5.6-10.4,1.6-12.2-0.2
			c-3.4-3.2-5.2-7.3-4.8-11.1c0.4-4.1,4.1-8.4,8.7-8c0.3,0,0.6,0.1,0.9,0.1c0.4,0.1,0.9,0.1,1.3,0.1c0.8,0,1.5-0.6,2-1.4
			c0.5-0.8,0.5-1.8,0.1-2.4c-1-1.7-3.5-1.8-4.3-1.8c-5.5,0-11,4.5-12.9,10.6c-2.2,6.7-0.4,14,4.7,19.3c0.4,0.4,0.4,1,0,1.4
			C24,35.2,23.8,35.3,23.5,35.3z"/>
	</g>
	<g>
		<path class="st2" d="M42.1,69c-0.7,0-1.4-0.1-2.1-0.2c-6-0.9-11.1-3.9-14.2-8c-3.6-4.9-4.2-11.3-1.5-16.1c0.3-0.5,0.9-0.7,1.4-0.4
			s0.7,0.9,0.4,1.4c-2.3,4.1-1.7,9.8,1.4,14c2.8,3.8,7.5,6.4,13,7.3c1.3,0.2,4.4,0.5,5.6-1.4c0.3-0.5,0.4-1.3,0.3-2
			s-0.6-1.3-1.1-1.6c-0.8-0.5-1.9-0.5-3-0.5c-0.3,0-0.6,0-0.9,0c-2.6-0.1-4.8-0.9-6.6-2.2c-2-1.6-3.3-4-3.2-6.4
			c0.1-2.4,1.1-4.3,2.9-5.4c0.5-0.3,1.1-0.1,1.4,0.3c0.3,0.5,0.1,1.1-0.3,1.4c-1.3,0.7-1.9,2-2,3.7c-0.1,1.7,0.9,3.5,2.4,4.7
			c1.8,1.4,3.9,1.7,5.4,1.8c0.3,0,0.5,0,0.8,0c1.3,0,2.7,0.1,3.9,0.8c1,0.6,1.8,1.6,2.1,2.9s0.1,2.5-0.5,3.5
			C46.5,68.2,44.6,69,42.1,69z"/>
	</g>
	<g>
		<path class="st2" d="M70.3,61.3c-1.6,0-3.2-0.3-4.6-0.6c-0.8-0.2-2.1-0.4-2.8-1.5c-0.4-0.6-0.5-1.2-0.5-1.7c0-0.2-0.1-0.4-0.1-0.7
			c-0.4-1.4-2.2-1.9-4-2.4l-0.5-0.2c-2.6-0.8-3.1-2-3.7-3.4c-0.1-0.3-0.2-0.5-0.3-0.8c-0.2-0.5,0-1.1,0.5-1.3c0.5-0.2,1.1,0,1.3,0.5
			c0.1,0.3,0.3,0.6,0.4,0.9c0.5,1.2,0.7,1.7,2.4,2.2l0.5,0.1c2.1,0.6,4.7,1.3,5.4,3.8c0.1,0.3,0.1,0.7,0.2,0.9
			c0.1,0.4,0.1,0.7,0.2,0.9c0.2,0.4,0.9,0.5,1.5,0.6c1.9,0.4,4,0.8,6,0.4c1.6-0.4,3.4-1.6,3.5-3.3c0-0.4,0-0.8,0-1.2
			c0-0.4-0.1-0.7-0.1-1.1c0-2.7,1.8-5.3,4.5-6.5c2.3-1,5.1-1,7.8,0.1c0.2,0.1,0.5,0.2,0.7,0.3c0.6,0.3,1.2,0.5,1.8,0.6
			c1.4,0.2,2.9-0.8,4.4-1.8c1.8-1.3,3.6-2.8,3.5-4.6c-0.1-1.5-1.4-2.7-2.8-3.9c-0.2-0.2-0.4-0.5-0.3-0.8s0.2-0.6,0.5-0.8
			c9.4-5.6,16.3-13.4,19.4-22c-6,5.4-13.8,8.9-21.8,10c-0.5,0.1-1.1-0.3-1.1-0.9c-0.1-0.5,0.3-1,0.9-1.1c8.8-1.2,17.3-5.6,23.3-12.1
			c0.3-0.3,0.8-0.4,1.2-0.2s0.6,0.7,0.5,1.1c-2.3,10.1-9.6,19.5-20.2,26.1c1.2,1.2,2.3,2.6,2.4,4.4c0.1,2.8-2.1,4.8-4.4,6.4
			c-1.4,1-3.4,2.4-5.7,2.2c-0.9-0.1-1.6-0.4-2.4-0.7c-0.2-0.1-0.4-0.2-0.6-0.3c-2.2-0.9-4.5-0.9-6.3-0.1c-2,0.9-3.3,2.8-3.3,4.7
			c0,0.3,0,0.6,0.1,0.9c0,0.5,0.1,1,0,1.5c-0.2,2.8-2.8,4.6-5.1,5.1C71.8,61.2,71,61.3,70.3,61.3z"/>
	</g>
	<g>
		<path class="st2" d="M82,52.5c-1,0-2-0.4-2.6-1.2c-0.2-0.3-0.4-0.5-0.5-0.8c-0.1-0.2-0.3-0.5-0.4-0.6c-0.5-0.1-0.9-0.6-0.8-1.2
			c0.1-0.5,0.6-0.9,1.2-0.8c1,0.2,1.4,1,1.7,1.6c0.1,0.2,0.2,0.4,0.3,0.5c0.2,0.3,0.8,0.5,1.3,0.4c0.7-0.1,1.3-0.5,1.8-0.8
			c0.5-0.4,1.4-1.1,1.3-1.7c-0.1-0.5,0.3-1,0.9-1.1c0.5-0.1,1,0.3,1.1,0.9c0.1,0.9-0.2,2.3-2.2,3.6c-0.7,0.5-1.6,1-2.7,1.2
			C82.4,52.5,82.2,52.5,82,52.5z"/>
	</g>
	<g>
		<path class="st2" d="M50.2,51.4c-0.2,0-0.5,0-0.8-0.2c-0.4-0.3-0.6-0.6-0.7-0.8l-1.1-2.3c-0.2-0.5,0-1.1,0.5-1.3
			c0.5-0.2,1.1,0,1.3,0.5l1,2.2c0,0,0,0,0.1,0c0,0,0,0,0,0c2.8,0,12-4.6,13-6.9c0.2-0.5,0.8-0.8,1.3-0.5c0.5,0.2,0.8,0.8,0.5,1.3
			c-1.4,3.3-11.5,8.2-14.8,8.2c0,0,0,0,0,0C50.5,51.4,50.3,51.4,50.2,51.4z"/>
	</g>
	<g>
		<path class="st2" d="M56.6,48.9c0.1,0.2,0.2,0.4,0.4,0.6c0.2,0.3,0.7,0.6,1,0.7c0.6,0.3,1.1-0.1,1.3-0.7c0.2-0.6,0.1-1.3-0.1-1.9"
			/>
	</g>
	<g>
		<path class="st2" d="M60.8,46.4c0.1-0.1,0.3,0,0.3,0.1c0.3,0.3,0.5,0.6,0.8,0.8s0.7,0.4,1.1,0.3c0.5-0.1,0.7-0.7,0.7-1.1
			c0-0.5-0.3-0.9-0.5-1.3"/>
	</g>
	<g>
		<path class="st2" d="M79.3,41.5c-0.4,0-0.7-0.2-0.9-0.5c-2.2-3.9-5.7-6.2-7.8-7.3c0,1.1-0.2,2.3-0.8,3.4c-0.8,1.4-2,2.2-3.5,2.4
			c-0.3,0-0.7-0.1-0.9-0.3c-0.2-0.3-0.3-0.6-0.2-0.9c0.9-3-1.7-6.1-4.6-7.8c-0.5-0.3-0.6-0.9-0.3-1.4c0.3-0.5,0.9-0.6,1.4-0.3
			c3,1.8,5.7,4.9,5.7,8.3c0.2-0.2,0.5-0.5,0.6-0.8c0.8-1.4,0.6-3.3,0.4-3.7c-0.2-0.4-0.1-0.8,0.1-1.1c0.3-0.3,0.7-0.4,1.1-0.3
			c0.2,0.1,4.9,1.8,8.6,6.3c-0.1-3.7-0.7-4.8-0.7-4.8c-0.2-0.3-0.2-0.7,0-1c0.2-0.3,0.5-0.5,0.9-0.5c3.3,0.2,4.9,1.6,6.7,3.1
			c0.5,0.4,1,0.8,1.5,1.2c-1.2-2.4-3.2-4.3-3.6-4.7c-0.3-0.3-0.4-0.8-0.2-1.2c0.2-0.4,0.7-0.6,1.1-0.5c2.5,0.7,4.5,0.4,6.6,0
			c1-0.2,1.9-0.3,3-0.4c-1.5-0.7-3.2-1.1-4.7-1.5c-0.5-0.1-0.9-0.2-1.3-0.3c-0.4-0.1-0.7-0.5-0.8-0.9s0.2-0.8,0.6-1
			c2.8-1.1,4-2.1,5.6-3.4c0.4-0.4,0.9-0.7,1.4-1.2l-8.9,1.1c-0.5,0-0.9-0.2-1.1-0.6c-0.2-0.4,0-0.9,0.3-1.2c1.3-0.9,1.9-1.9,2.6-3
			c0.7-1.1,1.5-2.3,3-3.7c-4.4,0.9-6.8,2.3-9.4,3.8c-1.4,0.8-2.9,1.7-4.7,2.5c-0.3,0.1-0.7,0.1-1-0.1c-0.3-0.2-0.4-0.6-0.4-0.9
			c0.3-2.9,1.9-5.5,3.7-8c-1.9,0.8-3.4,2.1-4.8,3.3c-1.7,1.4-3.3,2.8-5.4,3.4c-0.4,0.1-0.8,0-1.1-0.3c-0.3-0.3-0.3-0.8-0.1-1.1
			c0.9-1.5,1.3-4,1.1-6c-0.4,0.7-0.9,1.3-1.2,1.9c-1.8,2.8-3.2,5-5.8,7c-0.3,0.2-0.7,0.3-1.1,0.1c-0.3-0.2-0.6-0.5-0.6-0.9
			c0-3.5-0.4-6.3-1.2-8.3c-0.4,4-1.8,8.1-3.7,10.3c-0.2,0.2-0.5,0.4-0.8,0.4c-0.3,0-0.6-0.2-0.8-0.4c-0.2-0.3-0.4-0.6-0.6-0.9
			c-1.4-2.2-3.3-5.3-7.8-5.9c2.5,2,5,5.2,3.1,9.5c-0.2,0.5-0.8,0.7-1.3,0.5c-0.5-0.2-0.7-0.8-0.5-1.3c2-4.5-2.9-7.6-5.2-8.8
			c-0.4-0.2-0.6-0.6-0.5-1.1c0.1-0.4,0.4-0.8,0.9-0.8c7.9-0.8,11.1,3.7,12.8,6.5c1.6-2.7,2.6-7.2,2.5-11c0-0.4,0.2-0.8,0.6-1
			c0.4-0.2,0.8-0.1,1.1,0.2c2,2.1,3.1,5.4,3.4,10.1c1.4-1.5,2.5-3.1,3.8-5.2c0.7-1.1,1.5-2.4,2.5-3.8C68.3,6.1,68.7,6,69,6
			c0.4,0,0.7,0.3,0.8,0.6c0.9,2,1,4.8,0.3,7.3c0.8-0.6,1.7-1.3,2.5-2c2.2-1.9,4.8-4,8.7-4.6c0.4-0.1,0.8,0.1,1,0.5
			c0.2,0.4,0.2,0.8-0.1,1.1c-2.3,2.9-4,5.2-4.8,7.5c1-0.5,1.9-1,2.8-1.5c3.4-2,6.7-3.8,14.1-4.6c0.5-0.1,0.9,0.2,1.1,0.7
			c0.2,0.4,0,0.9-0.4,1.2c-3.5,2.2-4.6,3.9-5.7,5.5c-0.3,0.5-0.6,0.9-0.9,1.4l10.1-1.3c0.5-0.1,0.9,0.2,1.1,0.7
			c0.2,0.5,0,0.9-0.4,1.2c-2.2,1.3-3.5,2.4-4.7,3.3c-1.1,0.9-2,1.7-3.5,2.5c2.3,0.6,4.9,1.5,6.5,3.5c0.3,0.3,0.3,0.8,0.1,1.1
			c-0.2,0.4-0.6,0.6-1,0.5c-2.1-0.3-3.8,0-5.6,0.3c-1.4,0.2-2.9,0.5-4.5,0.4c1.2,1.5,2.6,3.7,3.1,6.2c0.1,0.4-0.1,0.8-0.4,1
			c-0.3,0.2-0.7,0.3-1.1,0.1c-1.9-0.9-3.1-2-4.3-3c-1.3-1.1-2.4-2-4-2.4c0.3,1.3,0.5,3.6,0.4,7.3c0,0.4-0.3,0.8-0.8,0.9
			C79.5,41.5,79.4,41.5,79.3,41.5z"/>
	</g>
	<g>
		<path class="st2" d="M63,57.3c0.3-0.5,0.8-2.6,1.9-2c0.5,0.3,0.7,1.1,0.8,1.7c0.1,0.6,0,1.1,0,1.7"/>
	</g>
	<g>
		<path class="st2" d="M68.6,59.5c0.1-0.3-0.8-3,1.2-3.2c0.4,0,1.2,0.8,1.3,1.2c0.2,0.7,0.4,1.4,0.4,2.1"/>
	</g>
	<g>
		<path class="st2" d="M65.7,59.3c-0.7-4.3,2.8-4.3,3.2,1.2"/>
	</g>
	<g>
		<path class="st2" d="M81.2,51.4c-0.1-0.6-0.9-2.2,0.8-2.4c0.7-0.1,1.2,0.6,1.5,1.1c0,0.1,0.1,0.1,0.1,0.2s-0.1,0.1-0.2,0"/>
	</g>
	<g>
		<path class="st2" d="M90,48.8c-0.2-0.3-0.4-0.7-0.5-1.1s0-0.8,0.2-1.1c0.4-0.4,1.1-0.4,1.6-0.1c0.5,0.3,0.8,0.8,1.2,1.2"/>
	</g>
	<g>
		<path class="st2" d="M92.4,47.5c-0.2-0.5-1-2.1,0.4-2.8c0.5-0.2,1.1-0.1,1.5,0.2c0.4,0.3,0.8,0.7,1,1.2"/>
	</g>
	<g>
		<path class="st2" d="M56.6,31.2c-0.3,0-0.5-0.1-0.7-0.3L53,28.1c-0.4-0.4-0.4-1,0-1.4c0.4-0.4,1-0.4,1.4,0l2.9,2.8
			c0.4,0.4,0.4,1,0,1.4C57.1,31.1,56.8,31.2,56.6,31.2z"/>
	</g>
	<g>
		<path class="st2" d="M53.6,31.1c-0.3,0-0.6-0.2-0.8-0.5c-0.3-0.5-0.2-1.1,0.3-1.4c1.1-0.7,2.1-1.5,2.9-2.4c0.4-0.4,1-0.4,1.4,0
			c0.4,0.4,0.4,1,0,1.4c-1,1-2.1,2-3.3,2.7C53.9,31,53.7,31.1,53.6,31.1z"/>
	</g>
</g>
<g id="New_Symbol_1_">
</g>
<g id="New_Symbol">
</g>
</svg>
