<?xml version="1.0" encoding="utf-8"?>
<!-- Generator: Adobe Illustrator 19.1.0, SVG Export Plug-In . SVG Version: 6.00 Build 0)  -->
<svg version="1.1" id="Layer_1" xmlns="http://www.w3.org/2000/svg" xmlns:xlink="http://www.w3.org/1999/xlink" x="0px" y="0px"
	 viewBox="0 0 199 70" style="enable-background:new 0 0 199 70;" xml:space="preserve">
<style type="text/css">
	.st0{fill:#080100;}
	.st1{fill:none;stroke:#FFFFFF;stroke-width:2;stroke-miterlimit:10;}
	.st2{fill:#FFFFFF;}
	.st3{fill:none;stroke:#FFFFFF;stroke-width:2;stroke-linecap:round;stroke-miterlimit:10;}
	.st4{fill:none;stroke:#FFFFFF;stroke-width:2;stroke-linecap:round;stroke-linejoin:round;stroke-miterlimit:10;}
	.st5{fill:#231F20;}
	.st6{fill:url(#SVGID_5_);stroke:#FFFFFF;stroke-width:2;stroke-miterlimit:10;}
	.st7{fill:url(#SVGID_6_);}
	.st8{fill:url(#SVGID_7_);}
	.st9{fill:url(#SVGID_8_);}
	.st10{fill:url(#SVGID_9_);}
	.st11{fill:url(#SVGID_10_);}
	.st12{fill:none;stroke:#FFFFFF;stroke-miterlimit:10;}
	.st13{fill:#1C75BC;}
	.st14{fill:#EAEAEA;}
	.st15{fill:#EF4136;}
	.st16{fill:#006838;stroke:#231F20;stroke-linecap:round;stroke-linejoin:round;stroke-miterlimit:10;}
	.st17{fill:#ED1C24;}
	.st18{fill:#006838;}
	.st19{fill:#FFFFFF;stroke:#231F20;stroke-linecap:round;stroke-miterlimit:10;}
	.st20{fill:#FFDE17;}
	.st21{fill:#C49A6C;}
	.st22{fill:#C2B59B;}
	.st23{fill:#A52C38;}
</style>
<g>
	<g>
		
			<rect x="-3.8" y="37.7" transform="matrix(0.7071 0.7071 -0.7071 0.7071 36.3211 -11.1205)" class="st2" width="70.7" height="1.2"/>
	</g>
	<g>
		<polygon class="st2" points="4.7,17.4 0,6.7 10.7,11.4 		"/>
	</g>
	<g>
		<path class="st2" d="M49.3,57.7l0.9,0.2l-0.4,1.6l0.8,1.2l0.3-1.4l0.9,0.2l-0.5,2.2l0.9,1.3l0.4-2l0.9,0.2l-0.6,2.8l1,1.4l0.6-2.6
			l0.9,0.2l-0.7,3.5l0,0.1l1.3,0.3l0.8-3.4l3.5-0.8l-0.4-1.3l-3.6,0.8L56,61.3l2.9-0.6l-1.4-1l-3.1,0.7l-0.2-0.9l2.2-0.5l-1.3-0.9
			l-2.5,0.5l-0.2-0.9l1.6-0.3L53,56.6L51.1,57l-0.2-0.9l1-0.2c-2.2-1.2-3.9,0.3-2.7,2.5L49.3,57.7z"/>
	</g>
	<g>
		<rect x="28" y="2.9" transform="matrix(0.7071 0.7071 -0.7071 0.7071 35.4241 -9.0701)" class="st2" width="1.2" height="70.7"/>
	</g>
	<g>
		<polygon class="st2" points="49.6,11.4 60.2,6.6 55.5,17.3 		"/>
	</g>
	<g>
		<path class="st2" d="M9.2,55.9l-0.2,0.9l-1.6-0.4l-1.2,0.8l1.4,0.3l-0.2,0.9L5.2,58l-1.3,0.9l2,0.4l-0.2,0.9l-2.8-0.6l-1.4,1
			l2.6,0.6L3.9,62l-3.5-0.7l-0.1,0l-0.3,1.3l3.4,0.8l0.8,3.5l1.3-0.4l-0.8-3.6l0.9-0.2l0.6,2.9l1-1.4L6.6,61l0.9-0.2l0.5,2.2
			l0.9-1.3l-0.5-2.5l0.9-0.2l0.3,1.6l0.8-1.2l-0.4-1.9l0.9-0.2l0.2,1c1.2-2.2-0.3-3.9-2.5-2.7L9.2,55.9z"/>
	</g>
	<g>
		<g>
			<path class="st2" d="M26.8,4.4H29v6.8h2.3V4.4h2.3v15.9h-2.3v-6.8H29v6.8h-2.3V4.4z"/>
		</g>
	</g>
	<g>
		<g>
			<path class="st2" d="M49.9,27.6h4.5c0.6,0,1.1,0.2,1.6,0.7c0.4,0.4,0.7,1,0.7,1.6v4.8c0,0.2-0.1,0.4-0.2,0.6
				c-0.2,0.2-0.4,0.2-0.6,0.2v0c0.2,0,0.4,0.1,0.6,0.2c0.2,0.2,0.2,0.4,0.2,0.6v4.8c0,0.6-0.2,1.1-0.7,1.6c-0.4,0.4-1,0.7-1.6,0.7
				h-4.5V27.6z M52.2,29.8v4.6h1.4c0.2,0,0.4-0.1,0.6-0.2c0.2-0.2,0.2-0.4,0.2-0.6v-2.8c0-0.2-0.1-0.4-0.2-0.6
				c-0.2-0.2-0.4-0.2-0.6-0.2H52.2z M52.2,36.6v4.5h1.4c0.2,0,0.4-0.1,0.6-0.2c0.2-0.2,0.2-0.4,0.2-0.6v-2.8c0-0.2-0.1-0.4-0.2-0.6
				c-0.2-0.2-0.4-0.2-0.6-0.2H52.2z"/>
		</g>
	</g>
	<g>
		<g>
			<path class="st2" d="M26.3,50.1h6.8v2.3h-2.3v13.6h-2.3V52.3h-2.3V50.1z"/>
		</g>
	</g>
	<g>
		<g>
			<path class="st2" d="M4.1,28h2.3L8.6,36V28h2.3v15.9H8.6L6.3,36v7.9H4.1V28z"/>
		</g>
	</g>
</g>
<g id="New_Symbol_1_">
</g>
<g id="New_Symbol">
</g>
</svg>
