<?xml version="1.0" encoding="utf-8"?>
<!-- Generator: Adobe Illustrator 19.1.0, SVG Export Plug-In . SVG Version: 6.00 Build 0)  -->
<svg version="1.1" id="Layer_1" xmlns="http://www.w3.org/2000/svg" xmlns:xlink="http://www.w3.org/1999/xlink" x="0px" y="0px"
	 viewBox="0 0 199 70" style="enable-background:new 0 0 199 70;" xml:space="preserve">
<style type="text/css">
	.st0{fill:#080100;}
	.st1{fill:none;stroke:#FFFFFF;stroke-width:2;stroke-miterlimit:10;}
	.st2{fill:#FFFFFF;}
	.st3{fill:none;stroke:#FFFFFF;stroke-width:2;stroke-linecap:round;stroke-miterlimit:10;}
	.st4{fill:none;stroke:#FFFFFF;stroke-width:2;stroke-linecap:round;stroke-linejoin:round;stroke-miterlimit:10;}
	.st5{fill:#231F20;}
	.st6{fill:url(#SVGID_5_);stroke:#FFFFFF;stroke-width:2;stroke-miterlimit:10;}
	.st7{fill:url(#SVGID_6_);}
	.st8{fill:url(#SVGID_7_);}
	.st9{fill:url(#SVGID_8_);}
	.st10{fill:url(#SVGID_9_);}
	.st11{fill:url(#SVGID_10_);}
	.st12{fill:none;stroke:#FFFFFF;stroke-miterlimit:10;}
	.st13{fill:#1C75BC;}
	.st14{fill:#EAEAEA;}
	.st15{fill:#EF4136;}
	.st16{fill:#006838;stroke:#231F20;stroke-linecap:round;stroke-linejoin:round;stroke-miterlimit:10;}
	.st17{fill:#ED1C24;}
	.st18{fill:#006838;}
	.st19{fill:#FFFFFF;stroke:#231F20;stroke-linecap:round;stroke-miterlimit:10;}
	.st20{fill:#FFDE17;}
	.st21{fill:#C49A6C;}
	.st22{fill:#C2B59B;}
	.st23{fill:#A52C38;}
</style>
<g id="New_Symbol_1_">
</g>
<g id="New_Symbol">
</g>
<g>
	<g>
		<g>
			<path class="st20" d="M98.7,8.6c-2.9-3.1-7-4.9-11.3-5.3c-2.7-0.3-5.6,0.1-7.8,1.6C79,5.4,78.4,6,78.1,6.8
				c-0.3,0.8-0.2,1.7,0.4,2.3c0.6,0.6,1.6,0.7,2.4,0.4c0.8-0.2,1.6-0.7,2.4-1c3.6-1.4,7.9,0,10.4,2.9c1.5,1.7,2.5,3.9,3,6.2
				c1.9-0.4,4-0.7,6-0.9C102.1,13.7,100.8,10.9,98.7,8.6z"/>
		</g>
		<g>
			<path class="st5" d="M93.1,4.4C89.3,2.8,84.4,2.1,80.6,4c-1.5,0.7-3.1,2.1-2.9,4c0.2,1.5,1.7,2.1,3.1,1.9c1.2-0.2,2.2-1,3.4-1.3
				c1.3-0.3,2.7-0.3,4,0c2.7,0.6,5,2.3,6.4,4.6c0.9,1.4,1.5,2.9,1.8,4.5c0.2,0,0.4-0.1,0.6-0.1c-0.1-0.6-0.3-1.1-0.4-1.6
				c-1.2-3.8-4-7-8-8c-1.8-0.4-3.7-0.4-5.4,0.3C82,8.7,80.3,9.9,79,9.1c-2.4-1.6,0.7-4,2.1-4.7c4.5-2.1,10.7-0.6,14.6,2
				c3.6,2.4,5.9,6.2,6.7,10.3c0.2,0,0.3,0,0.5,0C101.9,11.4,98.7,6.7,93.1,4.4z"/>
		</g>
	</g>
	<g>
		<path class="st20" d="M96.3,19.7c-2.1-2.2-1-6.1,1.4-7.9c2.4-1.8,5.6-2.1,8.7-1.9c1.1,0.1,2.3,0.2,3.3-0.3c1-0.5,1.7-1.7,1.2-2.7
			c-0.2-0.3-0.5-0.6-0.8-0.8c-1.2-0.8-2.5-1.2-3.9-1.4c-3.4-0.5-7.1,0.1-10,2c-2.9,1.9-5,5.1-5.3,8.5c-0.4,3.4,1.1,7.1,4,9.1
			c2.5,1.8,5.7,2.2,8.8,2.8c1.3-1.8,2.8-3.5,3.8-5.4c-0.8-0.1-1.7-0.2-2.6-0.2C101.9,21.3,98.4,21.9,96.3,19.7z"/>
	</g>
	<g>
		<path class="st5" d="M100.5,21c-2.2-0.2-4.4-1.1-4.8-3.5c-0.4-1.9,0.5-4.1,2-5.4c1.7-1.5,4.1-2,6.3-2.1c1.8-0.1,4.1,0.5,5.8-0.3
			c0.8-0.4,1.5-1.1,1.6-2c0.2-1.5-1.3-2.4-2.5-2.9c-3.3-1.4-7.3-1.1-10.5,0.2c-6.2,2.5-9.8,9.8-6.5,15.9c2.5,4.7,7.2,5.1,11.7,6
			c0.1-0.1,0.2-0.3,0.3-0.4c-2.6-0.5-5.3-0.8-7.6-2c-3.5-1.8-5.4-5.7-5-9.6c0.4-4,3.3-7.5,6.9-9.2c1.9-0.9,4-1.2,6.1-1.2
			c1.6,0,7.9,0.8,6.4,3.7c-1.1,1.9-4.3,1.1-6.1,1.1c-1.8,0-3.6,0.3-5.2,1c-2.4,1.1-4.2,3.3-4.3,6c-0.1,2.8,2,4.6,4.6,5
			c1.6,0.3,3.1,0.1,4.7,0.1c1,0,2.1,0.1,3.1,0.2c0.1-0.2,0.2-0.4,0.3-0.6c-0.4-0.1-0.8-0.1-1.2-0.2C104.4,20.9,102.4,21.2,100.5,21z
			"/>
	</g>
	<g>
		<path class="st20" d="M70.8,35.9l-1.9-1.3C69.2,35.2,69.9,35.6,70.8,35.9z"/>
	</g>
	<g>
		<path class="st5" d="M99.9,33.2c-0.5,0.6-0.9,1.1-1.5,1.7c0.5-0.7,1-1.4,1.4-2.1c0.4-0.4,0.7-0.9,1-1.4c-0.2,0.5-0.5,1-0.7,1.5
			C100.1,33,100,33.1,99.9,33.2z"/>
	</g>
	<g>
		<path class="st5" d="M91.2,39.2c2.6-0.5,4.8-1.9,6.7-3.7c-0.2,0.2-0.3,0.4-0.5,0.6c0,0,0,0,0,0c-0.4,0.4-0.7,0.8-1.2,1.1
			c0,0,0,0,0,0c-0.3,0.2-0.6,0.4-1,0.7c-4.9,3-10.9,1.4-16.3,0.8c0,0-0.1,0-0.1,0l0.1-0.3c2.1,0.2,4.1,0.5,6.2,0.7
			C87.1,39.4,89.2,39.6,91.2,39.2z"/>
	</g>
	<g>
		<path class="st20" d="M78.1,40.2l-0.9,2.1c-0.9,0.1-1.8,0.2-2.7,0.2l1.8-2.6c0,0,0.1,0.1,0.2,0.1C77.1,40.1,77.6,40.1,78.1,40.2z"
			/>
	</g>
	<g>
		<path class="st5" d="M97.9,35.5c0.4-0.5,0.7-1,1-1.5c0.1-0.1,0.1-0.1,0.2-0.2c0.3-0.3,0.5-0.7,0.8-1c-0.4,0.8-0.9,1.5-1.4,2.1
			C98.3,35.1,98.1,35.3,97.9,35.5z"/>
	</g>
	<g>
		<path class="st5" d="M97.4,36.1c0.2-0.2,0.3-0.4,0.5-0.6c0.2-0.2,0.4-0.4,0.6-0.6C98.1,35.3,97.8,35.7,97.4,36.1z"/>
	</g>
	<g>
		<path class="st5" d="M102.9,16.7c0.8,3.8,0.4,8-0.9,11.9c-0.3,0.9-0.7,1.8-1.1,2.7c-0.3,0.5-0.7,0.9-1,1.4c0.5-0.9,1-1.9,1.4-2.9
			c1.4-3.5,2.1-7.3,1.8-11c-0.1-0.7-0.2-1.4-0.3-2C102.8,16.7,102.9,16.7,102.9,16.7z"/>
	</g>
	<g>
		<path class="st20" d="M74.5,42.5c-3.6,0.3-6.6,0.3-7.9,0.1l1.4-4.2c0.8-0.7,1.3-1.6,1.6-2.6c0,0,0,0,0,0c0.8,1.2,2.2,2,3.7,2
			c0.9,0,1.7-0.3,2.4-0.7c1.1,0.1,2.1,0.1,3.2,0.1l0,1.1c-0.3,0-0.4,0.4-0.1,0.6l-0.4,0.9c-0.6-0.1-1.2-0.2-1.9-0.2
			c-0.3,0-0.4,0.4-0.2,0.5L74.5,42.5z"/>
	</g>
	<g>
		<path class="st5" d="M78.3,39.9c1.9,0.3,3.8,0.9,5.6,1.6c-0.2,0-0.4,0.1-0.6,0.1c-1.7-0.6-3.4-1.1-5.1-1.4L78.3,39.9z"/>
	</g>
	<g>
		<path class="st5" d="M98.5,34.9c0.5-0.5,1-1.1,1.5-1.7c0.1-0.1,0.2-0.3,0.3-0.4c-0.2,0.4-0.5,0.9-0.8,1.3
			c-0.8,0.9-1.6,1.8-2.5,2.6c0.2-0.2,0.3-0.4,0.5-0.6c0,0,0,0,0,0C97.8,35.7,98.1,35.3,98.5,34.9z"/>
	</g>
	<g>
		<path class="st5" d="M97.4,36.1c-0.1,0.2-0.3,0.4-0.5,0.6c-0.2,0.2-0.4,0.4-0.7,0.5C96.6,36.9,97,36.5,97.4,36.1z"/>
	</g>
	<g>
		<path class="st20" d="M78.1,40.2c1.8,0.3,3.5,0.8,5.1,1.4c-2,0.3-4.1,0.5-6,0.7L78.1,40.2z"/>
	</g>
	<g>
		<path class="st5" d="M83.9,41.5c1,0.4,2.1,0.9,3.1,1.3c-0.2,0-0.3,0.1-0.5,0.1c-1-0.5-2.1-0.9-3.2-1.3
			C83.5,41.6,83.7,41.5,83.9,41.5z"/>
	</g>
	<g>
		<path class="st20" d="M72.7,45.1l1.9-2.6c0.9-0.1,1.8-0.1,2.7-0.2l-1,2.3c-0.2-0.1-0.4,0.1-0.4,0.3C74.7,44.7,73.7,44.8,72.7,45.1
			z"/>
	</g>
	<g>
		<path class="st5" d="M83.9,41.5c-1.8-0.7-3.7-1.3-5.6-1.6l0.1-0.3c2.1,0.4,4.1,1,6.1,1.8C84.3,41.5,84.1,41.5,83.9,41.5z"/>
	</g>
	<g>
		<path class="st20" d="M69,32.1c-0.9-1.4-2.4-2.4-4.2-2.4c-2.7,0-4.9,2.2-4.9,4.9c0,2.7,2.2,4.9,4.9,4.9c1.2,0,2.3-0.4,3.2-1.2
			l-1.4,4.2c1.3,0.2,4.3,0.2,7.9-0.1l-1.9,2.6c-0.2,0.1-0.5,0.2-0.7,0.3c-5.5-0.6-12.2,2.2-12.5,8.5c-0.1,2.4,1,4.9,2.9,6.3
			c0.6,0.4,1.3,0.7,2,0.9c-1.3,2.1,2.6,2.4,1.3,3.9c-0.6,0.7-1.6,1.2-2.5,1.5c-2.6,0.8-5.5,1-8.2,0.4c-0.6-0.1-1.1-0.3-1.5-0.6
			c-1.1-0.8-1-2.2-0.8-3.5c0.2-1.5,0.9-3.7,0.2-4.6c-0.6-0.9-1.9-1.3-3-1.3c-0.6,0-1.4,0.2-2.2,0.4c-0.6,0.1-1.2,0.3-1.6,0.5h0
			c-1.4,3.1-0.7,3.6,0.1,5.7c0.2,0.5,0.4,1.2,0.5,2c0,0.2,0.1,0.5-0.1,0.7c-0.1,0.2-0.3,0.2-0.5,0.3c-4.5,1.7-9.6,1.7-14.1,0
			c0.2-4.3,0.1-4.3,1-8.1c-3.6-0.6-5.9-1.2-9.2-2.5c-6.7-2.6-12.8-7.1-17-13c-4.2-5.8-6.6-13.1-6.5-20.3c0.1-4.1,1.1-8.6,4.4-11.2
			c1.3-1,3-1.7,4.6-1.5c-1.6,3.1-2.9,6.4-2.7,9.9c0.2,3.9,2.1,7.5,4.6,10.5c3.6,4.4,7.3,7.4,12.9,6.4c1.1-0.2,2-0.4,2.8-0.7
			c0.3,0.1,0.6,0.2,0.9,0.3c-0.5,0.9,34.8-8.8,34.9-8.8c0.5,0.2,2.6,0.7,3.2,0.8c1.3,0.2,2.4,0.2,3.7-0.1c0.7-0.2,3.5-1.3,4.1-0.6
			c0.1,0.1,0.3,0.2,0.4,0.1c0.8-0.3,1.5,0.3,0.8,1.2c-0.1,0.1-0.1,0.2-0.1,0.2c-0.4-0.1-0.9-0.2-1.3-0.2
			C71.2,28.8,69.5,30.2,69,32.1z"/>
	</g>
	<g>
		<path class="st20" d="M87.4,42.8c3.7-0.8,7-3,9.5-6c0.9-0.8,1.8-1.6,2.5-2.6c-2.7,4.3-6.5,7.7-11.2,9C87.9,43,87.7,42.9,87.4,42.8
			z"/>
	</g>
	<g>
		<path class="st5" d="M98.9,33.9c2.7-4.3,4.1-9.6,3.9-14.3c0-0.9-0.2-1.9-0.4-2.8c0.1,0,0.2,0,0.3,0c0.1,0.7,0.2,1.4,0.3,2
			c0.3,3.7-0.4,7.5-1.8,11c-0.4,1.1-0.9,2-1.4,2.9c-0.3,0.3-0.5,0.7-0.8,1C99,33.8,99,33.9,98.9,33.9z"/>
	</g>
	<g>
		<path class="st5" d="M84.4,41.4c1,0.4,2,0.9,3,1.3c-0.2,0-0.3,0.1-0.5,0.1c-1-0.5-2-0.9-3.1-1.3C84.1,41.5,84.3,41.5,84.4,41.4z"
			/>
	</g>
	<g>
		<path class="st20" d="M96.9,36.7c-2.5,3-5.7,5.2-9.5,6c-1-0.5-2-0.9-3-1.3c4.6-0.7,8.5-1.6,9.9-2.6c0.7-0.5,1.3-1,1.9-1.5
			c0,0,0,0,0,0C96.4,37.1,96.7,36.9,96.9,36.7z"/>
	</g>
	<g>
		<path class="st20" d="M82,42.9c-0.4-0.1-0.5,0.5-0.2,0.6c1.9,0.3,3.7,0.2,5.4-0.1c0.6,0.3,1.1,0.6,1.7,0.9
			c1.4,0.7,2.8,1.6,4.2,2.4c-4.5,1.3-9.4,1-13.8-0.7c-0.4-0.2-0.8-0.4-1.3-0.5c-0.7-0.3-1.3-0.6-1.9-0.9c0,0,0,0,0,0l1-2.3
			c2-0.2,4-0.4,6-0.7c1.1,0.4,2.1,0.8,3.2,1.3C85,43.1,83.6,43.1,82,42.9z"/>
	</g>
	<g>
		<path class="st20" d="M78.9,38.7c5.4,0.6,11.4,2.2,16.3-0.8c0.3-0.2,0.7-0.4,1-0.7c-0.6,0.5-1.2,1-1.9,1.5c-1.3,1-5.3,1.9-9.9,2.6
			c-2-0.8-4-1.4-6.1-1.8l0.4-0.9C78.8,38.7,78.9,38.7,78.9,38.7z"/>
	</g>
	<g>
		<path class="st20" d="M49.7,62.6c-1,0.7-2.3,0.9-3.6,0.8l-0.1,0c-0.7-2.1-1.5-2.6-0.1-5.7h0c0.5-0.1,1-0.3,1.6-0.5l0,0
			c0.2,3,1.7,3,2.3,4.8c0,0.1,0.1,0.2,0,0.4C49.9,62.4,49.8,62.5,49.7,62.6z"/>
	</g>
	<g>
		<path class="st5" d="M72,45.4c0.2-0.1,0.5-0.2,0.7-0.3l-0.2,0.3c-0.1,0-0.1,0-0.2,0c0,0,0,0,0,0C72.1,45.4,72.1,45.4,72,45.4z"/>
	</g>
	<g>
		<path class="st5" d="M104.4,38.4c1.6-2.7,2.5-5.9,4.6-8.2c0.3-0.3,0.5-0.5,0.8-0.7c0.1,0.1,0.2,0.1,0.3,0.2
			c-0.8,0.6-1.5,1.5-2.1,2.4c-1.5,2.3-2.3,5-3.8,7.3c-2.4,3.7-5.8,6.2-9.7,7.5c-0.1-0.1-0.2-0.1-0.3-0.2
			C98.5,45.1,102.2,42.2,104.4,38.4z"/>
	</g>
	<g>
		<path class="st20" d="M104.4,26.9c1.7-1.9,3.7-3.4,6.4-3.9c0.2,0.1,0.3,0.1,0.5,0.2c-1.3,0.2-2.6,0.6-3.8,1.3
			c-1.1,0.6-2.1,1.5-2.9,2.4C104.6,26.9,104.5,26.9,104.4,26.9z"/>
	</g>
	<g>
		<path class="st5" d="M72.4,45.4L72.4,45.4c-0.1,0-0.1,0-0.2,0C72.3,45.4,72.4,45.4,72.4,45.4z"/>
	</g>
	<g>
		<path class="st20" d="M103.8,26.7c1.2-1.6,2.5-3.1,3.5-4.8c1.1,0.2,2.2,0.5,3.3,0.9c0.1,0,0.2,0.1,0.3,0.1c-2.8,0.5-4.7,2-6.4,3.9
			C104.2,26.8,104,26.8,103.8,26.7z"/>
	</g>
	<g>
		<path class="st20" d="M118.6,32c0.5,2.2,0.2,4.5-0.1,6.7c-0.3,2.1-0.5,4.3-1.1,6.4c-1.3,4.5-4.4,7.6-8.7,9.1
			c-3.9,1.4-8.4,1.8-12.5,1.3c-5.7-0.7-10.1-4.9-14.9-7.7c0-0.2-0.1-0.5-0.3-0.7c4.3,1.2,8.8,1.2,12.9-0.1c1.8,1,3.7,2,5.7,2.5
			c6.4,1.7,12.9-2.5,14.5-8.7c0.8-3,0.5-6.5-1.2-9.2c-0.6-1-1.3-1.8-2.2-2.4c0.4-0.2,0.8-0.4,1.3-0.6c1.7-0.4,3.6,0,5.2,0.7
			c0.2,0.1,0.5,0.2,0.7,0.4C118.2,30.5,118.4,31.3,118.6,32z"/>
	</g>
	<g>
		<path class="st20" d="M80.9,47.6c-0.3-0.2-0.6-0.3-0.8-0.4c-0.7-0.7-2.3-1.1-2.9-1.3c-1-0.3-1.9-0.5-2.9-0.4c-0.5,0-1,0-1.5,0
			c1.2-0.4,2.4-0.4,3.7-0.1c1.3,0.7,2.6,1.2,4,1.6C80.6,47.1,80.8,47.4,80.9,47.6z"/>
	</g>
	<g>
		<path class="st20" d="M117.4,28.9c-1.8-0.8-4.2-1.3-6.1-0.7c-0.4,0.1-0.8,0.4-1.2,0.6c-1.2-0.8-2.7-1.3-4.2-1.7
			c-0.3-0.1-0.6-0.1-0.9-0.2c2-2.1,4.4-3.2,7-3.5C114.3,24.7,116.2,26.6,117.4,28.9z"/>
	</g>
	<g>
		<path class="st20" d="M79.5,46.4c0.3,0.1,0.6,0.3,0.8,0.5c-1.4-0.4-2.7-1-4-1.6C77.4,45.6,78.5,46,79.5,46.4z"/>
	</g>
	<g>
		<path class="st5" d="M118.4,29.6c0,0.1,0.1,0.2,0.1,0.2c-0.1-0.1-0.3-0.2-0.4-0.2c-0.1-0.1-0.1-0.3-0.2-0.4
			c0.1,0.1,0.3,0.1,0.4,0.2C118.3,29.5,118.4,29.5,118.4,29.6z"/>
	</g>
	<g>
		<path class="st5" d="M81.2,47.8c0,0.1,0,0.2,0,0.3C81.1,48.1,81,48,80.9,48c0-0.1,0-0.3-0.1-0.4C81,47.7,81.1,47.7,81.2,47.8z"/>
	</g>
	<g>
		<path class="st5" d="M110.4,29.1c0.1,0.1,0.2,0.1,0.3,0.2c-0.1,0-0.2,0.1-0.2,0.2c-0.1-0.1-0.2-0.1-0.3-0.2
			C110.2,29.2,110.3,29.1,110.4,29.1z"/>
	</g>
	<g>
		<path class="st20" d="M111.4,28.6c-0.4,0.1-0.7,0.3-1,0.5c-0.1-0.1-0.2-0.1-0.3-0.2c0.4-0.3,0.8-0.5,1.2-0.6
			c2-0.7,4.3-0.2,6.1,0.7h0c0.1,0.1,0.1,0.3,0.2,0.4c-1.2-0.6-2.4-0.9-3.7-1C113.1,28.3,112.2,28.3,111.4,28.6z"/>
	</g>
	<g>
		<path class="st5" d="M80.4,47.7c0.2,0.1,0.4,0.2,0.5,0.3c0,0.1,0,0.2-0.1,0.3c0,0,0,0,0,0c-0.2-0.1-0.3-0.2-0.5-0.3
			C80.4,47.9,80.4,47.8,80.4,47.7z"/>
	</g>
	<g>
		<path class="st5" d="M118.1,29.6c0.1,0.1,0.3,0.2,0.4,0.2c0.1,0.2,0.1,0.3,0.2,0.5c-0.1-0.1-0.3-0.2-0.4-0.3
			C118.2,29.9,118.2,29.8,118.1,29.6z"/>
	</g>
	<g>
		<path class="st5" d="M83.4,49.5c3.4,2.3,6.7,4.9,10.6,5.9c2.1,0.5,4.3,0.6,6.5,0.5c5.6-0.2,11.7-1.7,15-6.3
			c2.2-3.1,2.8-7.1,3.2-10.9c0.2-1.9,0.5-3.9,0.2-5.8c-0.1-1-0.4-1.9-0.7-2.8c0.1,0.1,0.3,0.2,0.4,0.3c1.2,3.5,0.6,7.3,0.1,10.9
			c-0.5,3.6-1.5,7.2-4.1,9.9c-2.4,2.4-5.6,3.7-8.8,4.4c-3.5,0.7-7.3,1-10.9,0.4c-5.2-0.9-9.4-4.9-13.9-7.5c0.1-0.1,0.1-0.2,0.1-0.3
			C81.9,48.6,82.7,49,83.4,49.5z"/>
	</g>
	<g>
		<path class="st5" d="M114,40.8c-1.6,6.3-8.1,10.5-14.5,8.7c-2-0.5-3.9-1.5-5.7-2.5c0.2,0,0.3-0.1,0.5-0.2c0.1,0.1,0.2,0.1,0.3,0.2
			c1.7,1,3.5,1.9,5.5,2.4c3.9,0.9,8.1-0.5,10.8-3.5c2.7-2.9,3.7-7.2,2.8-11.1c-0.4-1.7-1.1-3.3-2.3-4.5c-0.3-0.3-0.7-0.6-1-0.9
			c0.1-0.1,0.2-0.1,0.2-0.2c0.8,0.6,1.6,1.4,2.2,2.4C114.4,34.4,114.7,37.8,114,40.8z"/>
	</g>
	<g>
		<path class="st5" d="M74.2,45.4c2.1,0.2,4,0.8,5.8,1.8c0.2,0.2,0.3,0.3,0.4,0.5c-2.4-1.3-4.9-2.2-7.5-2
			C73.3,45.5,73.8,45.4,74.2,45.4z"/>
	</g>
	<g>
		<path class="st2" d="M69,34.3c0.1,0.5,0.3,0.9,0.5,1.3c-0.1,0-0.1,0-0.2,0c-0.3-0.2-0.5-0.5-0.7-0.8C68.5,34.5,68.7,34.3,69,34.3
			C69,34.3,69,34.3,69,34.3z"/>
	</g>
	<g>
		<path class="st21" d="M68.7,57.6c1.6,0.4,1.3,3.1-0.6,1.8c-0.1-0.1-0.3,0-0.4,0.1c-1.7,2.5-5.2,0.5-6.5-1.4
			c-1.3-1.9-1.5-4.2-0.7-6.3c1.7-4.7,6.8-6.3,11.4-5.8c0,0,0.1,0.1,0.2,0.1c0.1,0,0.1,0,0.2,0c0,0,0,0,0,0c0,0,0,0,0,0
			c3-0.2,5.6,0.7,8.1,2c-0.1,0.2-0.2,0.4-0.5,0.7c-1.2,0.9-3.5,1-4.9,1c-0.9,0-1.6-0.2-2.5-0.3c-0.3,0-0.4-0.1-0.7-0.1
			c-0.6,0.1-1,0.9-1.3,1.4c-0.8,1.1-1.6,2.3-2.2,3.6c-0.3,0.7-0.6,1.5-0.4,2.2c0.1,0.3,0.2,0.6,0.4,0.8
			C68.4,57.4,68.6,57.5,68.7,57.6z"/>
	</g>
	<g>
		<path class="st5" d="M72.5,45.8c0,0,0-0.1,0-0.1c0.1,0,0.3,0,0.4,0C72.8,45.7,72.6,45.7,72.5,45.8z"/>
	</g>
	<g>
		<path class="st5" d="M104,27.3c0-0.1,0.1-0.1,0.1-0.2c0.1,0,0.1,0,0.2,0c-0.1,0.1-0.1,0.1-0.2,0.2C104.2,27.3,104.1,27.3,104,27.3
			z"/>
	</g>
	<g>
		<path class="st5" d="M72.3,46C72.3,46,72.3,46,72.3,46C72.3,46,72.3,46,72.3,46z"/>
	</g>
	<g>
		<path class="st5" d="M74.6,29c0.2,0.1,0.3,0.1,0.5,0.2C74.9,29.3,74.6,29.2,74.6,29z"/>
	</g>
	<g>
		<path class="st5" d="M89,44.2c-0.6-0.3-1.1-0.6-1.7-0.9c0.2,0,0.3-0.1,0.5-0.1c2,1,4,2.2,6,3.3c-0.2,0.1-0.3,0.1-0.5,0.2
			C91.8,45.8,90.4,45,89,44.2z"/>
	</g>
	<g>
		<path class="st5" d="M113.7,34.8c0.9,3.9-0.1,8.2-2.8,11.1c-2.7,2.9-6.9,4.4-10.8,3.5C98.2,49,96.4,48,94.6,47
			c-0.1-0.1-0.2-0.1-0.3-0.2c0.1,0,0.2,0,0.2-0.1c2.6,1.5,5.3,2.7,8.3,2.6c4.9-0.2,9.1-3.6,10.4-8.3c1.2-4,0.3-8.9-3.1-11.5
			c0.1-0.1,0.2-0.1,0.3-0.2c0.4,0.3,0.7,0.6,1,0.9C112.6,31.6,113.4,33.2,113.7,34.8z"/>
	</g>
	<g>
		<path class="st5" d="M118.1,29.6c0.1,0.2,0.1,0.3,0.2,0.5c-0.1-0.1-0.3-0.2-0.4-0.2c-0.1-0.1-0.1-0.3-0.2-0.4
			C117.8,29.5,117.9,29.5,118.1,29.6z"/>
	</g>
	<g>
		<path class="st20" d="M76.5,45c1.3,0.7,2.7,1.3,4.1,1.7c0.1,0.1,0.3,0.2,0.4,0.4c-0.2-0.1-0.4-0.1-0.6-0.2
			c-0.3-0.2-0.6-0.4-0.8-0.5c-1-0.4-2.1-0.9-3.2-1.1c-0.1-0.1-0.3-0.1-0.4-0.2c-0.1,0-0.1-0.1-0.1-0.2c0.2,0,0.4,0.1,0.6,0.1
			C76.4,45,76.4,45,76.5,45C76.4,45,76.5,45,76.5,45z"/>
	</g>
	<g>
		<path class="st5" d="M71.9,46c-0.1-0.1-0.1-0.2-0.1-0.3c0,0,0,0,0,0c0,0.2,0.2,0.3,0.5,0.2c0.1,0,0.2-0.1,0.2-0.1
			c0,0.1-0.1,0.2-0.2,0.2c0,0,0,0,0,0c0,0,0,0,0,0c0,0,0,0,0,0C72.1,46,72,46,71.9,46z"/>
	</g>
	<g>
		<path class="st5" d="M72.3,45.9c-0.2,0.1-0.4-0.1-0.5-0.2c0.1,0,0.3,0,0.4,0.1c0.1,0,0.2,0,0.3,0c0,0,0,0.1,0,0.1
			C72.4,45.8,72.3,45.9,72.3,45.9z"/>
	</g>
	<g>
		<path class="st20" d="M91.6,47.4c-3.7,0.8-7.5,0.5-11.1-0.6c0,0,0,0,0,0c-0.3-0.3-0.7-0.5-1.1-0.7c4.4,1.6,9.3,2,13.8,0.7
			c0.1,0.1,0.2,0.1,0.3,0.2C92.9,47.1,92.3,47.2,91.6,47.4z"/>
	</g>
	<g>
		<path class="st5" d="M81.2,47.8c4.9,2.8,9.2,7,14.9,7.7c4.1,0.5,8.6,0,12.5-1.3c4.3-1.5,7.4-4.6,8.7-9.1c0.6-2.1,0.9-4.2,1.1-6.4
			c0.3-2.2,0.5-4.5,0.1-6.7c-0.2-0.8-0.4-1.5-0.7-2.2c0.1,0.1,0.3,0.2,0.4,0.2c0.4,0.9,0.6,1.8,0.7,2.8c0.3,1.9,0,3.9-0.2,5.8
			c-0.5,3.8-1,7.8-3.2,10.9c-3.3,4.6-9.4,6.1-15,6.3C98.3,56,96.1,56,94,55.4c-3.9-1-7.2-3.6-10.6-5.9c-0.7-0.5-1.4-0.9-2.2-1.4
			C81.2,48,81.3,47.9,81.2,47.8z"/>
	</g>
	<g>
		<path class="st5" d="M72.2,45.7c-0.1,0-0.3,0-0.4-0.1c0,0,0,0,0,0c0,0,0,0,0,0c0-0.1,0.1-0.2,0.3-0.2c0.1,0,0.1,0,0.2,0
			c0.1,0,0.1,0,0.1,0.1l0,0c-0.1,0-0.2,0.1-0.2,0.1L72.2,45.7z"/>
	</g>
	<g>
		<path class="st5" d="M117.9,29.2c0.1,0.1,0.1,0.3,0.2,0.4c-0.1-0.1-0.3-0.1-0.4-0.2c-0.1-0.1-0.1-0.3-0.2-0.4
			C117.6,29,117.7,29.1,117.9,29.2z"/>
	</g>
	<g>
		<path class="st5" d="M80.4,48c-2.5-1.3-5.1-2.2-8.1-2c0.1,0,0.2-0.1,0.2-0.2c0.1,0,0.3-0.1,0.4-0.1c2.6-0.1,5.1,0.8,7.5,2
			C80.4,47.8,80.4,47.9,80.4,48z"/>
	</g>
	<g>
		<path class="st5" d="M72.7,45.4c0.5,0,1,0,1.5,0c-0.4,0-0.9,0.1-1.3,0.2c-0.1,0-0.3,0-0.4,0c0-0.1-0.1-0.1-0.1-0.2
			C72.5,45.4,72.6,45.4,72.7,45.4z"/>
	</g>
	<g>
		<path class="st5" d="M104.6,27.4c-1.9,2.1-3.4,4.6-5.2,6.7c0.3-0.4,0.5-0.9,0.8-1.3c1.4-1.8,2.6-3.8,4.1-5.5
			C104.4,27.4,104.5,27.4,104.6,27.4z"/>
	</g>
	<g>
		<path class="st5" d="M104.2,27.1c-0.1,0.1-0.1,0.1-0.1,0.2c-0.2,0-0.4-0.1-0.6-0.1c0-0.1,0.1-0.1,0.1-0.2
			C103.8,27,104,27.1,104.2,27.1z"/>
	</g>
	<g>
		<path class="st20" d="M110.4,29.1c0.3-0.2,0.7-0.4,1-0.5c0.8-0.3,1.7-0.3,2.6-0.2c1.3,0.1,2.5,0.5,3.7,1c0.1,0.1,0.1,0.3,0.2,0.4
			c-0.2-0.1-0.5-0.2-0.7-0.4c-1.5-0.7-3.5-1.1-5.2-0.7c-0.5,0.1-0.9,0.3-1.3,0.6C110.6,29.2,110.5,29.1,110.4,29.1z"/>
	</g>
	<g>
		<path class="st2" d="M69.2,34.5c0.1,0.2,0.3,0.4,0.5,0.6c0,0.2,0,0.4-0.1,0.6c0,0,0,0-0.1,0c-0.2-0.4-0.4-0.8-0.5-1.3
			C69,34.4,69.1,34.4,69.2,34.5z"/>
	</g>
	<g>
		<path class="st20" d="M104.6,26.9c0.9-0.9,1.8-1.8,2.9-2.4c1.2-0.7,2.5-1.1,3.8-1.3c0.2,0.1,0.4,0.2,0.6,0.3c-2.6,0.3-5,1.4-7,3.5
			C104.9,26.9,104.8,26.9,104.6,26.9z"/>
	</g>
	<g>
		<path class="st5" d="M72.1,45.4c-0.1,0-0.2,0.1-0.3,0.2c0-0.1,0-0.2,0.2-0.2c0.1,0,0.2,0,0.3,0c0,0,0,0,0,0
			C72.2,45.4,72.1,45.4,72.1,45.4z"/>
	</g>
	<g>
		<path class="st5" d="M80.9,48c0.1,0,0.2,0.1,0.3,0.2c0,0.1-0.1,0.2-0.1,0.3c-0.1,0-0.1-0.1-0.2-0.1c0,0,0,0,0,0
			C80.9,48.1,80.9,48.1,80.9,48z"/>
	</g>
	<g>
		<path class="st5" d="M73.5,27.4c-0.6-0.7-3.4,0.4-4.1,0.6c-1.3,0.4-2.3,0.4-3.7,0.1c-0.5-0.1-2.6-0.6-3.2-0.8
			c0.2-0.1,0.4-0.2,0.6-0.3c1,0.3,3.5,0.8,4.5,0.7c1.4-0.1,4.7-2,6.1-0.8c-0.1,0-0.1,0.1-0.2,0.1c0.1,0,0.3,0.1,0.4,0.1
			c-0.1-0.1-0.1-0.1-0.2-0.2c1.4-0.5,2.5,1.1,1.3,2.2l0,0c-0.2-0.1-0.3-0.1-0.5-0.2c0-0.1,0-0.2,0.1-0.2c0.7-0.9,0-1.5-0.8-1.2
			C73.7,27.6,73.6,27.6,73.5,27.4z"/>
	</g>
	<g>
		<path class="st5" d="M72.2,45.7l0.1-0.2c0,0,0,0,0,0c0.1,0,0.1,0.1,0.1,0.2C72.4,45.7,72.3,45.7,72.2,45.7z"/>
	</g>
	<g>
		<path class="st20" d="M79.4,46c0.4,0.2,0.8,0.4,1.1,0.7c0,0,0,0,0,0c-1.4-0.4-2.8-1-4.1-1.7c0.5,0.1,1.1,0.3,1.7,0.5
			C78.6,45.7,79,45.9,79.4,46z"/>
	</g>
	<g>
		<path class="st20" d="M80.9,47.1c0.2,0.3,0.3,0.5,0.3,0.7c-0.1-0.1-0.3-0.1-0.4-0.2c-0.1-0.2-0.3-0.5-0.5-0.7
			C80.5,47,80.7,47.1,80.9,47.1z"/>
	</g>
	<g>
		<path class="st5" d="M125.9,27.8c3,3.6,3,9,1.8,13.3c-0.2,0.8-0.5,1.6-0.8,2.4c-0.2-0.1-0.4-0.2-0.5-0.2c0.1,0,0.2,0.1,0.3,0.1
			c0.5-1.2,0.9-2.4,1.1-3.6c0.9-4.3,0.6-9.4-2.6-12.5c-1.1-1.1-2.5-1.9-4-2.5c-2.7-1.2-5.7-2-8.6-1.8c-0.2-0.1-0.3-0.2-0.5-0.3
			C116.7,22.3,122.8,24.1,125.9,27.8z"/>
	</g>
	<g>
		<path class="st5" d="M125,27.4c3.2,3.1,3.5,8.1,2.6,12.5c-0.3,1.2-0.6,2.4-1.1,3.6c-0.1,0-0.2-0.1-0.3-0.1
			c0.7-1.5,1.1-3.2,1.3-4.9c0.4-2.7,0.3-5.6-0.8-8.1c-1.2-2.6-3.3-4.1-5.8-5.3c-2.6-1.1-5.3-1.8-7.9-1.7c-0.2-0.1-0.4-0.2-0.6-0.4
			c2.9-0.2,6,0.6,8.6,1.8C122.5,25.5,123.9,26.3,125,27.4z"/>
	</g>
	<g>
		<path class="st20" d="M126.7,30.4c1.1,2.5,1.2,5.4,0.8,8.1c-0.2,1.7-0.7,3.3-1.3,4.9c-1.3-0.5-2.6-1.1-3.6-1.9
			c0.4-0.8,0.6-1.7,0.7-2.6c0.5-3.9-1.7-7.5-5.1-9.4c-1.1-2.5-3-4.6-5.3-6c2.6-0.1,5.3,0.5,7.9,1.7
			C123.4,26.2,125.6,27.8,126.7,30.4z"/>
	</g>
	<g>
		<path class="st5" d="M118.3,29.4c3.3,1.9,5.5,5.5,5.1,9.4c-0.1,0.9-0.3,1.8-0.7,2.6c-0.1-0.1-0.2-0.1-0.2-0.2
			c0.8-1.9,1-4.2,0.3-6.2c-0.7-2.2-2.3-4-4.2-5.2c0-0.1-0.1-0.2-0.1-0.2C118.4,29.5,118.3,29.5,118.3,29.4z"/>
	</g>
	<g>
		<path class="st5" d="M122.7,35c0.7,2,0.5,4.3-0.3,6.2c0.1,0.1,0.2,0.1,0.2,0.2c0,0,0,0,0,0c-0.2-0.1-0.3-0.3-0.4-0.4
			c1.6-3.8-0.1-8.3-3.5-10.7c-0.1-0.2-0.1-0.3-0.2-0.5C120.5,31,122,32.8,122.7,35z"/>
	</g>
	<g>
		<path class="st5" d="M118.3,29.4c-0.1-0.1-0.3-0.2-0.4-0.2c-0.9-1.8-2.2-3.4-3.8-4.6c-0.5-0.4-1-0.7-1.6-1.1c0.2,0,0.3,0,0.5,0
			C115.3,24.8,117.2,26.9,118.3,29.4z"/>
	</g>
	<g>
		<path class="st5" d="M117.9,29.2c-0.1-0.1-0.3-0.1-0.4-0.2h0c-1.2-2.3-3.2-4.2-5.5-5.5c0.2,0,0.4,0,0.5-0.1
			c0.6,0.3,1.1,0.7,1.6,1.1C115.7,25.7,117,27.3,117.9,29.2z"/>
	</g>
	<g>
		<path class="st5" d="M113,23.4c-0.2,0-0.3,0-0.5,0c-0.2-0.1-0.4-0.2-0.6-0.3c0.2,0,0.4,0,0.5,0C112.6,23.2,112.8,23.3,113,23.4z"
			/>
	</g>
	<g>
		<path class="st5" d="M112.5,23.4c-0.2,0-0.4,0-0.5,0.1c-0.2-0.1-0.4-0.2-0.6-0.3c0.2,0,0.4-0.1,0.5-0.1
			C112.1,23.2,112.3,23.3,112.5,23.4z"/>
	</g>
	<g>
		<path class="st5" d="M112.4,23c-0.2,0-0.4,0-0.5,0c-0.2-0.1-0.3-0.2-0.5-0.2c0,0,0.1,0,0.1,0c0.1,0,0.3,0,0.4,0
			C112.1,22.9,112.3,23,112.4,23z"/>
	</g>
	<g>
		<path class="st5" d="M112,22.8c-0.1,0-0.3,0-0.4,0c0,0-0.1,0-0.1,0c-1.3-0.6-2.6-1-4-1.3c0,0.1-0.1,0.2-0.2,0.3
			c0.1-0.2,0.2-0.4,0.3-0.6c1.1,0.2,2.2,0.5,3.3,0.9C111.2,22.4,111.6,22.6,112,22.8z"/>
	</g>
	<g>
		<path class="st5" d="M111.4,22.9c0.2,0.1,0.3,0.2,0.5,0.2c-0.2,0-0.4,0-0.5,0.1c-0.2-0.1-0.3-0.1-0.5-0.2
			C111,22.9,111.2,22.9,111.4,22.9z"/>
	</g>
	<g>
		<path class="st5" d="M107.4,21.6c1.4,0.2,2.7,0.7,4,1.3c-0.2,0-0.4,0.1-0.6,0.1c-0.1,0-0.2-0.1-0.3-0.1c-1.1-0.4-2.2-0.7-3.3-0.9
			C107.3,21.8,107.4,21.7,107.4,21.6z"/>
	</g>
	<g>
		<path class="st5" d="M110.4,29.1c-0.1,0.1-0.2,0.1-0.2,0.2c-0.1-0.1-0.2-0.1-0.3-0.2c0.1-0.1,0.2-0.1,0.2-0.2
			C110.2,29,110.3,29,110.4,29.1z"/>
	</g>
	<g>
		<path class="st5" d="M110.1,29.2c0.1,0.1,0.2,0.1,0.3,0.2c-0.1,0.1-0.2,0.1-0.3,0.2c-0.1-0.1-0.2-0.1-0.3-0.2
			C109.9,29.4,110,29.3,110.1,29.2z"/>
	</g>
	<g>
		<path class="st5" d="M109.9,29.1c0.1,0.1,0.2,0.1,0.3,0.2c-0.1,0.1-0.2,0.1-0.3,0.2c-0.1-0.1-0.2-0.1-0.3-0.2
			C109.7,29.2,109.8,29.1,109.9,29.1z"/>
	</g>
	<g>
		<path class="st5" d="M105.9,27.2c1.5,0.4,2.9,0.9,4.2,1.7c-0.1,0-0.2,0.1-0.2,0.2c-1.5-1-3.3-1.5-5.1-1.8c0.1-0.1,0.2-0.2,0.2-0.3
			C105.3,27,105.6,27.1,105.9,27.2z"/>
	</g>
	<g>
		<path class="st5" d="M109.9,29.1c-0.1,0.1-0.2,0.1-0.3,0.2c-0.2-0.1-0.3-0.2-0.5-0.3c-1.4-0.7-2.9-1.2-4.5-1.5
			c0-0.1,0.1-0.1,0.1-0.2c0,0,0,0,0,0C106.6,27.6,108.3,28.1,109.9,29.1z"/>
	</g>
	<g>
		<path class="st5" d="M109.6,29.3c0.1,0.1,0.2,0.1,0.3,0.2c-0.3,0.2-0.6,0.5-0.8,0.7c-2.2,2.3-3,5.5-4.6,8.2
			c-2.2,3.8-5.9,6.8-10.1,8.3c-0.1-0.1-0.2-0.1-0.3-0.2c0.6-0.2,1.2-0.4,1.8-0.7c2.5-1.2,4.9-2.9,6.7-5c2-2.3,3-5.1,4.4-7.8
			C107.5,31.6,108.4,30.2,109.6,29.3z"/>
	</g>
	<g>
		<path class="st20" d="M109.1,28.9c0.2,0.1,0.4,0.2,0.5,0.3c-1.2,1-2.1,2.4-2.8,3.7c-1.4,2.7-2.4,5.5-4.4,7.8
			c-1.8,2.1-4.1,3.8-6.7,5c-0.6,0.3-1.2,0.5-1.8,0.7c-1.6-0.9-3.1-1.9-4.6-2.7c-0.4-0.2-0.7-0.4-1.1-0.6c4.7-1.3,8.6-4.7,11.2-9
			c1.8-2.2,3.3-4.6,5.2-6.7C106.1,27.8,107.7,28.2,109.1,28.9z"/>
	</g>
	<g>
		<path class="st5" d="M105,27c-0.1,0.1-0.2,0.2-0.2,0.3c-0.1,0-0.2,0-0.3-0.1c0.1-0.1,0.1-0.2,0.2-0.3
			C104.8,26.9,104.9,26.9,105,27z"/>
	</g>
	<g>
		<path class="st5" d="M104.7,27.2C104.7,27.2,104.7,27.2,104.7,27.2c-0.1,0.1-0.1,0.1-0.2,0.2c-0.1,0-0.2-0.1-0.3-0.1
			c0-0.1,0.1-0.1,0.2-0.2C104.5,27.2,104.6,27.2,104.7,27.2z"/>
	</g>
	<g>
		<path class="st5" d="M104.6,26.9c-0.1,0.1-0.2,0.2-0.2,0.3c-0.1,0-0.1,0-0.2,0c0.1-0.1,0.1-0.2,0.2-0.3
			C104.5,26.9,104.6,26.9,104.6,26.9z"/>
	</g>
	<g>
		<path class="st5" d="M104.4,26.9c-0.1,0.1-0.2,0.2-0.2,0.3c-0.2,0-0.4-0.1-0.6-0.1c0-0.1,0.1-0.1,0.2-0.2c0,0,0,0,0,0
			C104,26.8,104.2,26.8,104.4,26.9z"/>
	</g>
	<g>
		<path class="st5" d="M104,27.3c0.1,0,0.1,0,0.2,0c-1.5,1.7-2.7,3.7-4.1,5.5c0.3-0.5,0.5-1,0.7-1.5C102,30,102.9,28.6,104,27.3z"/>
	</g>
	<g>
		<path class="st20" d="M103.6,27c0.1-0.1,0.1-0.1,0.2-0.2C103.7,26.9,103.7,26.9,103.6,27L103.6,27z"/>
	</g>
	<g>
		<path class="st20" d="M102.8,19.6c0.2,4.7-1.2,10-3.9,14.3c-2.3,2.6-5.3,4.8-8.8,5.1c-3.7,0.3-7.5-0.5-11.2-0.9l0-1.1
			c0.3,0,0.6,0,0.9,0c2.4-0.1,4.9,0,7.3-0.6c8.1-1.9,11.5-11.4,9.9-18.9c1.8-0.4,3.6-0.6,5.4-0.8C102.6,17.7,102.7,18.6,102.8,19.6z
			"/>
	</g>
	<g>
		<path class="st5" d="M98.9,33.9c-0.3,0.5-0.7,1-1,1.5c-1.9,1.8-4.1,3.3-6.7,3.7c-2,0.4-4.1,0.2-6.1-0.1c-2.1-0.2-4.1-0.5-6.2-0.7
			l-0.1,0.3c-0.3-0.1-0.2-0.6,0.1-0.6c3.6,0.4,7.5,1.2,11.2,0.9C93.6,38.7,96.6,36.6,98.9,33.9z"/>
	</g>
	<g>
		<path class="st5" d="M97,17.6c1.6,7.5-1.8,17-9.9,18.9C84.8,37,82.2,37,79.8,37c-0.3,0-0.6,0-0.9,0c-1.1,0-2.1,0-3.2-0.1
			c0.2-0.1,0.3-0.2,0.5-0.4c1.1,0.1,1.9,0.1,2.2,0.1c2.3,0,4.9-0.1,7.2-0.3c3.3-0.3,6.3-2.3,8.3-4.9c2-2.7,2.9-6,3.1-9.3
			c0.1-1.5,0-3.1-0.4-4.6C96.8,17.6,96.9,17.6,97,17.6z"/>
	</g>
	<g>
		<path class="st5" d="M96.7,17.6c0.3,1.5,0.4,3.1,0.4,4.6c-0.2,3.3-1.1,6.6-3.1,9.3c-2,2.7-5,4.6-8.3,4.9c-2.4,0.2-4.9,0.3-7.2,0.3
			c-0.4,0-1.2,0-2.2-0.1c0.1-0.1,0.1-0.1,0.2-0.2c1,0,2.1,0,3.1,0c3.1-0.1,6.5,0.1,9.4-1.2c2.6-1.2,4.7-3.4,6-6
			c1.7-3.4,2.3-7.7,1.5-11.5C96.5,17.7,96.6,17.7,96.7,17.6z"/>
	</g>
	<g>
		<path class="st5" d="M97,17.6C97,17.6,97,17.6,97,17.6c-0.1,0-0.2,0-0.3,0.1C96.8,17.6,96.9,17.6,97,17.6z"/>
	</g>
	<g>
		<path class="st5" d="M94.6,46.8c-0.1,0-0.2,0.1-0.2,0.1c-0.1-0.1-0.2-0.1-0.3-0.2c0.1,0,0.2-0.1,0.2-0.1
			C94.4,46.7,94.5,46.7,94.6,46.8z"/>
	</g>
	<g>
		<path class="st5" d="M94,46.7c0.1,0.1,0.2,0.1,0.3,0.2C94.2,46.9,94,47,93.8,47c-0.1,0-0.2-0.1-0.3-0.2
			C93.7,46.8,93.9,46.8,94,46.7z"/>
	</g>
	<g>
		<path class="st5" d="M94.3,46.6c-0.1,0-0.2,0.1-0.2,0.1c-0.1-0.1-0.2-0.1-0.3-0.2c0.1,0,0.2-0.1,0.2-0.1
			C94.1,46.5,94.2,46.6,94.3,46.6z"/>
	</g>
	<g>
		<path class="st5" d="M93.7,46.5c0.1,0.1,0.2,0.1,0.3,0.2c-0.2,0.1-0.3,0.1-0.5,0.2c-0.1-0.1-0.2-0.1-0.3-0.2
			C93.4,46.6,93.5,46.6,93.7,46.5z"/>
	</g>
	<g>
		<path class="st20" d="M93.5,46.9c0.1,0.1,0.2,0.1,0.3,0.2c-4.1,1.3-8.6,1.3-12.9,0.1c-0.1-0.1-0.2-0.2-0.4-0.4
			c3.6,1.1,7.4,1.4,11.1,0.6C92.3,47.2,92.9,47.1,93.5,46.9z"/>
	</g>
	<g>
		<path class="st5" d="M93.9,46.4c-0.1,0-0.2,0.1-0.2,0.1c-2-1.1-3.9-2.2-6-3.3c0.1,0,0.3-0.1,0.4-0.1c0.4,0.2,0.7,0.4,1.1,0.6
			C90.8,44.5,92.4,45.5,93.9,46.4z"/>
	</g>
	<g>
		<path class="st5" d="M88.2,43.1c-0.1,0-0.3,0.1-0.4,0.1c-0.3-0.1-0.5-0.3-0.8-0.4c0.2,0,0.3-0.1,0.5-0.1
			C87.7,42.9,87.9,43,88.2,43.1z"/>
	</g>
	<g>
		<path class="st5" d="M87.7,43.3c-0.1,0-0.3,0.1-0.5,0.1c-0.3-0.1-0.6-0.3-0.9-0.4c0.2,0,0.3-0.1,0.5-0.1
			C87.2,43,87.5,43.1,87.7,43.3z"/>
	</g>
	<g>
		<path class="st20" d="M86.4,42.9c0.3,0.1,0.6,0.3,0.9,0.4c-1.7,0.3-3.5,0.4-5.4,0.1c-0.4-0.1-0.2-0.6,0.2-0.6
			C83.6,43.1,85,43.1,86.4,42.9z"/>
	</g>
	<g>
		<path class="st5" d="M80.9,48.3c0.1,0,0.1,0.1,0.2,0.1c-0.7,1.1-3.3,1.7-4.3,1.8c-1,0.1-1.9,0.1-2.9,0c-0.3,0-0.7-0.2-1.1-0.2
			c-1,0-1.3,0.1-1.9,0.9c-0.6,0.8-1.2,1.7-1.7,2.7c-0.3,0.5-0.6,1.1-0.8,1.7c-0.2,0.9,0.2,1.4,0.9,2c0.6,0.6,1.2,1.1,0.8,2.1
			c-0.4,0.9-1.4,1-2.1,0.7c0.1-0.1,0.1-0.1,0.2-0.2c0.5,0.3,1.1,0.1,1.5-0.3c0.4-0.5,0.4-1.3-0.1-1.8c-0.3-0.3-0.8-0.4-1.1-0.7
			c-0.7-0.6-0.4-1.8,0-2.7c0.8-1.6,1.7-3.1,2.8-4.4c0.1-0.2,0.3-0.3,0.5-0.4c0.2,0,0.4,0,0.6,0.1c2.5,0.6,5.3,0.4,7.6-0.7
			C80.4,48.8,80.7,48.6,80.9,48.3z"/>
	</g>
	<g>
		<path class="st5" d="M80.9,47.6c0.1,0.1,0.1,0.2,0.1,0.4c-0.2-0.1-0.4-0.2-0.5-0.3c-0.1-0.2-0.2-0.4-0.4-0.5
			C80.3,47.3,80.6,47.4,80.9,47.6z"/>
	</g>
	<g>
		<path class="st5" d="M80.4,48c0.2,0.1,0.3,0.2,0.5,0.3c-0.1,0.3-0.5,0.5-0.8,0.7c-2.4,1.1-5.1,1.3-7.6,0.7c-0.2,0-0.4-0.1-0.6-0.1
			c-0.2,0.1-0.4,0.2-0.5,0.4c-1.1,1.4-2.1,2.9-2.8,4.4c-0.4,0.9-0.7,2,0,2.7c0.3,0.3,0.8,0.4,1.1,0.7c0.5,0.4,0.6,1.3,0.1,1.8
			c-0.4,0.4-1,0.5-1.5,0.3c0,0,0,0,0,0c0,0,0,0,0,0c-0.1,0-0.2-0.1-0.2-0.2c-0.8,1.3-2.7,1.5-4.2,1c-2.6-1-4.2-3.9-4-6.7
			c0.2-2.8,2-5.3,4.4-6.8c2.3-1.3,5-1.7,7.7-1.4c0,0.1,0,0.2,0.1,0.3c-4.6-0.5-9.7,1.2-11.4,5.8c-0.8,2.1-0.5,4.4,0.7,6.3
			c1.3,1.9,4.8,3.9,6.5,1.4c0.1-0.1,0.3-0.2,0.4-0.1c1.9,1.3,2.2-1.4,0.6-1.8c-0.1-0.1-0.3-0.2-0.4-0.3c-0.2-0.2-0.4-0.5-0.4-0.8
			c-0.2-0.7,0.1-1.5,0.4-2.2c0.6-1.3,1.3-2.5,2.2-3.6c0.3-0.5,0.7-1.2,1.3-1.4c0.3-0.1,0.4,0,0.7,0.1c0.8,0.1,1.6,0.3,2.5,0.3
			c1.4,0,3.7-0.1,4.9-1C80.2,48.4,80.3,48.2,80.4,48z"/>
	</g>
	<g>
		<path class="st20" d="M78.1,45.5c0.4,0.1,0.9,0.3,1.3,0.5C79,45.9,78.6,45.7,78.1,45.5z"/>
	</g>
	<g>
		<path class="st5" d="M78.4,39.7l-0.1,0.3c-0.6-0.1-1.2-0.2-1.8-0.2l-0.2,0.2c-0.2-0.2-0.1-0.6,0.2-0.5
			C77.1,39.5,77.8,39.6,78.4,39.7z"/>
	</g>
	<g>
		<path class="st5" d="M78.3,39.9l-0.1,0.3c-0.5-0.1-1.1-0.2-1.6-0.2c-0.1,0-0.1,0-0.2-0.1l0.2-0.2C77.1,39.8,77.7,39.8,78.3,39.9z"
			/>
	</g>
	<g>
		<path class="st20" d="M77.1,45.8c0.6,0.2,2.2,0.6,2.9,1.3c-1.8-0.9-3.7-1.6-5.8-1.8C75.2,45.3,76.2,45.5,77.1,45.8z"/>
	</g>
	<g>
		<path class="st20" d="M76.2,44.6c0.6,0.3,1.3,0.7,1.9,0.9c-0.6-0.2-1.2-0.3-1.7-0.5c0,0,0,0,0,0c-0.1-0.1-0.2-0.1-0.4-0.2
			L76.2,44.6C76.2,44.6,76.2,44.6,76.2,44.6z"/>
	</g>
	<g>
		<path class="st2" d="M75.1,29.1c1.6,0.7,2.7,2.3,2.7,4.1c0,1.2-0.5,2.4-1.3,3.2c-0.6,0-1.3-0.1-1.9-0.1c-1.3-0.1-3.6-0.3-4.9-1.3
			c0-0.1,0-0.3,0-0.4c0-0.9-0.3-1.8-0.7-2.5c0.5-1.9,2.2-3.3,4.3-3.3c0.4,0,0.9,0.1,1.3,0.2C74.6,29.2,74.9,29.3,75.1,29.1z"/>
	</g>
	<g>
		<path class="st20" d="M76.1,44.8c0.1,0.1,0.2,0.1,0.4,0.2c0,0-0.1,0-0.1,0c-0.2,0-0.4-0.1-0.6-0.1c0-0.2,0.2-0.4,0.4-0.3
			L76.1,44.8z"/>
	</g>
	<g>
		<path class="st5" d="M76.4,36.4c-0.1,0.1-0.1,0.1-0.2,0.2c-2-0.2-4.8-0.5-6.6-1c0-0.2,0.1-0.4,0.1-0.6c1.2,1,3.5,1.1,4.9,1.3
			C75.2,36.3,75.8,36.4,76.4,36.4z"/>
	</g>
	<g>
		<path class="st20" d="M75.9,45.1c0.1,0.1,0.3,0.1,0.4,0.2c-1.3-0.3-2.5-0.4-3.7,0.1c-0.1,0-0.1,0-0.2,0l0.2-0.3
			c1-0.3,2.1-0.4,3.1-0.2C75.8,45,75.8,45,75.9,45.1z"/>
	</g>
	<g>
		<path class="st5" d="M76.2,36.6c-0.1,0.1-0.3,0.3-0.5,0.4c0,0-0.1,0-0.1,0c-1.7-0.1-4.4-0.2-6.1-1.3c0,0,0,0,0-0.1c0,0,0,0,0-0.1
			C71.4,36.1,74.2,36.4,76.2,36.6z"/>
	</g>
	<g>
		<path class="st20" d="M75.6,37C75.7,37,75.7,37,75.6,37c-0.6,0.5-1.5,0.7-2.4,0.7c-1.5,0-2.9-0.8-3.7-2C71.2,36.8,74,36.9,75.6,37
			z"/>
	</g>
	<g>
		<path class="st5" d="M74,27.1c-0.1,0-0.3-0.1-0.4-0.1c0.1,0,0.1-0.1,0.2-0.1C73.9,27,74,27.1,74,27.1z"/>
	</g>
	<g>
		<path class="st5" d="M72.7,45.4c-0.1,0-0.2,0.1-0.3,0.1c0,0,0,0,0,0l0.1-0.1C72.5,45.4,72.6,45.4,72.7,45.4z"/>
	</g>
	<g>
		<path class="st5" d="M72.4,45.5C72.4,45.5,72.4,45.5,72.4,45.5C72.4,45.5,72.4,45.5,72.4,45.5L72.4,45.5z"/>
	</g>
	<g>
		<path class="st5" d="M72.1,45.6c0.1,0,0.2-0.1,0.2-0.1l-0.1,0.2L72.1,45.6z"/>
	</g>
	<g>
		<path class="st5" d="M72.3,46c-0.1,0-0.1,0-0.2,0c-0.1,0-0.1,0-0.2-0.1C72,46,72.1,46,72.3,46C72.2,46,72.2,46,72.3,46z"/>
	</g>
	<g>
		<path class="st5" d="M64.4,61c-0.7-0.2-1.4-0.5-2-0.9c-2-1.4-3.1-3.9-2.9-6.3c0.4-6.3,7-9.1,12.5-8.5c-0.1,0.1-0.2,0.1-0.2,0.2
			c0,0,0,0,0,0c0,0,0,0,0,0c-2.6-0.3-5.4,0.1-7.7,1.4c-2.4,1.4-4.2,4-4.4,6.8c-0.2,2.8,1.4,5.7,4,6.7c1.4,0.6,3.4,0.4,4.2-1
			c0.1,0.1,0.1,0.1,0.2,0.2c-0.1,0-0.3,0.1-0.4,0.1c0.1,0,0.2,0.1,0.2,0.1C67.1,61.1,65.7,61.3,64.4,61z"/>
	</g>
	<g>
		<path class="st5" d="M71.8,45.6C71.8,45.6,71.8,45.6,71.8,45.6C71.8,45.6,71.8,45.6,71.8,45.6C71.8,45.6,71.8,45.6,71.8,45.6z"/>
	</g>
	<g>
		<path class="st2" d="M69.7,34.6c0,0.1,0,0.3,0,0.4c-0.2-0.2-0.4-0.3-0.5-0.6c0-0.1-0.1-0.1-0.2-0.1c0,0,0,0,0,0
			c-0.1-0.4-0.1-0.7-0.1-1.1c0-0.4,0.1-0.8,0.2-1.2C69.4,32.8,69.7,33.7,69.7,34.6z"/>
	</g>
	<g>
		<path class="st5" d="M69.6,35.7C69.6,35.7,69.6,35.7,69.6,35.7C69.6,35.7,69.6,35.7,69.6,35.7C69.5,35.7,69.6,35.7,69.6,35.7z"/>
	</g>
	<g>
		<path class="st2" d="M69.6,35.6C69.6,35.6,69.6,35.6,69.6,35.6C69.5,35.6,69.5,35.6,69.6,35.6C69.5,35.6,69.5,35.6,69.6,35.6z"/>
	</g>
	<g>
		<path class="st2" d="M69.6,35.7C69.6,35.7,69.5,35.7,69.6,35.7c-0.1,0-0.1-0.1-0.2-0.1C69.4,35.6,69.5,35.6,69.6,35.7
			C69.5,35.6,69.5,35.6,69.6,35.7z"/>
	</g>
	<g>
		<path class="st2" d="M69.4,35.6c0.1,0,0.1,0.1,0.2,0.1c-0.2,1-0.8,2-1.6,2.6l0.9-2.9C69,35.5,69.2,35.5,69.4,35.6z"/>
	</g>
	<g>
		<path class="st2" d="M69.4,35.6c-0.2,0-0.3-0.1-0.5-0.1L68,38.3c-0.9,0.7-2,1.2-3.2,1.2c-2.7,0-4.9-2.2-4.9-4.9
			c0-2.7,2.2-4.9,4.9-4.9c1.8,0,3.4,1,4.2,2.4c-0.1,0.4-0.2,0.8-0.2,1.2c0,0.4,0,0.7,0.1,1.1c-0.2,0-0.5,0.2-0.3,0.4
			C68.8,35.1,69.1,35.3,69.4,35.6z"/>
	</g>
	<g>
		<path class="st5" d="M68.2,59.7C68.2,59.7,68.2,59.7,68.2,59.7C68.2,59.8,68.2,59.7,68.2,59.7C68.2,59.7,68.2,59.7,68.2,59.7z"/>
	</g>
	<g>
		<path class="st5" d="M68.2,59.7C68.2,59.7,68.2,59.8,68.2,59.7c0,0.1-0.1,0.2-0.1,0.2c-0.1,0-0.2-0.1-0.2-0.1
			C67.9,59.8,68,59.8,68.2,59.7z"/>
	</g>
	<g>
		<path class="st13" d="M30,40l0.4,0.1c-0.1,0-0.3,0-0.4,0C29.9,40.1,30,40.1,30,40z"/>
	</g>
	<g>
		<path class="st5" d="M69,32.4C69,32.4,68.9,32.4,69,32.4c-0.2-0.1-0.3-0.2-0.3-0.4c0.5-2.1,2.4-3.5,4.6-3.5c0.5,0,0.9,0.1,1.4,0.2
			c0.2,0,0.2,0.2,0.2,0.4c0,0.2-0.2,0.2-0.4,0.2c-0.4-0.1-0.8-0.2-1.2-0.2c-1.9,0-3.5,1.3-4,3.1C69.2,32.3,69.1,32.4,69,32.4z"/>
	</g>
	<g>
		<path class="st5" d="M76.4,36.7c-0.1,0-0.2,0-0.2-0.1c-0.1-0.1-0.1-0.3,0-0.4c0.8-0.8,1.2-1.9,1.2-3c0-1.6-1-3.1-2.5-3.8
			c-0.2-0.1-0.2-0.2-0.2-0.4c0.1-0.2,0.2-0.2,0.4-0.2c1.7,0.8,2.8,2.5,2.8,4.4c0,1.3-0.5,2.5-1.4,3.4C76.6,36.7,76.5,36.7,76.4,36.7
			z"/>
	</g>
	<g>
		<path class="st5" d="M64.8,39.8c-2.9,0-5.2-2.3-5.2-5.2c0-2.9,2.3-5.2,5.2-5.2c1.8,0,3.6,1,4.5,2.6c0.5,0.8,0.7,1.7,0.7,2.7
			c0,0.2,0,0.3,0,0.5c0,0.2,0,0.4-0.1,0.6c0,0,0,0,0,0.1l0,0.1c-0.2,1.1-0.8,2-1.7,2.7C67.2,39.4,66,39.8,64.8,39.8z M64.8,30
			c-2.5,0-4.6,2.1-4.6,4.6c0,2.5,2.1,4.6,4.6,4.6c1.1,0,2.2-0.4,3-1.1c0.7-0.6,1.3-1.5,1.5-2.5l0-0.1c0-0.2,0.1-0.4,0.1-0.6
			c0-0.1,0-0.3,0-0.4c0-0.8-0.2-1.6-0.6-2.4l0,0C67.9,30.8,66.4,30,64.8,30z"/>
	</g>
	<g>
		<path class="st5" d="M33,58.5L33,58.5c-3.9-0.7-6.2-1.3-9.3-2.5c-6.9-2.7-13-7.3-17.1-13.1c-4.4-6-6.7-13.3-6.6-20.5
			C0.1,18.9,0.9,14,4.5,11C6,9.8,7.7,9.3,9.3,9.5l0.4,0.1L9.5,9.9c-1.3,2.6-2.8,6.1-2.7,9.7C7,23,8.5,26.5,11.3,30
			c3.1,3.9,6.8,7.3,12.6,6.3c1-0.2,1.9-0.4,2.7-0.7l0.2,0.6c-0.8,0.3-1.7,0.5-2.8,0.7c-6.1,1-9.9-2.5-13.2-6.5
			c-2.9-3.6-4.5-7.2-4.6-10.7c-0.1-3.6,1.2-7,2.6-9.6c-1.3-0.1-2.7,0.4-3.9,1.4c-3.4,2.8-4.2,7.5-4.2,11c-0.1,7,2.2,14.2,6.4,20.1
			c4.1,5.7,10.1,10.2,16.9,12.9c3.1,1.2,5.4,1.8,9.1,2.5L33,58.5z"/>
	</g>
	<g>
		<polygon class="st5" points="46.3,57.7 45.7,57.7 45.7,57.5 		"/>
	</g>
	<g>
		<path class="st5" d="M39,67.9c-2.5,0-4.9-0.4-7.2-1.3l-0.2-0.1l0-1c0.2-3.5,0.2-3.7,1-7.4l0-0.1l0.1-0.1l1.3-3.1l-0.8,3.3l0,0.1
			l0,0c-0.8,3.6-0.8,3.7-1,7.3l0,0.6c4.3,1.6,9.3,1.6,13.7,0c0.1-0.1,0.3-0.1,0.3-0.2c0.1-0.1,0.1-0.3,0-0.5c-0.1-0.7-0.3-1.4-0.5-2
			c-0.1-0.4-0.2-0.7-0.4-1c-0.6-1.4-0.9-2.3,0.3-5l0.5,0.2c-1.1,2.5-0.8,3.2-0.3,4.5c0.1,0.3,0.2,0.6,0.4,1c0.2,0.6,0.4,1.3,0.5,2
			c0,0.2,0.1,0.6-0.1,0.9c-0.1,0.2-0.4,0.3-0.6,0.4C43.9,67.5,41.4,67.9,39,67.9z"/>
	</g>
	<g>
		<path class="st5" d="M58.4,67.5c-1.2,0-2.3-0.1-3.5-0.4c-0.6-0.1-1.2-0.3-1.6-0.7c-1.2-0.9-1.1-2.4-0.9-3.7c0-0.3,0.1-0.7,0.2-1.1
			c0.2-1.2,0.5-2.7,0.1-3.3c-0.5-0.7-1.6-1.1-2.8-1.1c-0.5,0-1.2,0.1-2.1,0.4c-0.5,0.1-1,0.3-1.4,0.4L46,58l0-0.2l-0.2-0.4l0.4-0.1
			c0.4-0.1,0.9-0.3,1.4-0.4c1-0.2,1.7-0.4,2.3-0.4c1.4,0,2.6,0.5,3.3,1.4c0.6,0.8,0.3,2.4,0,3.7c-0.1,0.4-0.2,0.8-0.2,1.1
			c-0.2,1.2-0.2,2.5,0.7,3.2c0.4,0.3,0.9,0.4,1.4,0.6c2.6,0.6,5.5,0.5,8-0.4c1.2-0.4,1.9-0.8,2.4-1.4c0.1-0.2,0.2-0.3,0.2-0.4
			c0-0.3-0.4-0.5-0.7-0.8c-0.7-0.5-1.6-1.3-0.9-2.6v0l0.1-0.1l0.2,0.2h0.3l0,0v0.1l0,0.1c-0.5,0.9-0.1,1.3,0.7,1.9
			c0.4,0.3,0.9,0.7,0.9,1.2c0,0.3-0.1,0.6-0.3,0.9c-0.7,0.9-1.9,1.3-2.7,1.6C61.7,67.2,60,67.5,58.4,67.5z"/>
	</g>
	<g>
		<path class="st5" d="M46.9,63.7c-0.3,0-0.5,0-0.8-0.1l0.1-0.6c1.2,0.2,2.4-0.1,3.4-0.7c0.1,0,0.1-0.1,0.1-0.1c0,0,0-0.1,0-0.2
			c-0.2-0.6-0.5-1-0.9-1.4c-0.6-0.7-1.3-1.5-1.4-3.4l0.6,0c0.1,1.7,0.7,2.4,1.3,3.1c0.4,0.4,0.8,0.9,1,1.6c0,0.1,0.1,0.3,0,0.6
			c-0.1,0.2-0.2,0.3-0.3,0.3C49,63.4,47.9,63.7,46.9,63.7z"/>
	</g>
	<g>
		<g>
			<path class="st20" d="M122.4,41.2c-0.7,1.6-1.8,3-3.4,3.9c-1.2,0.7-2.7,1.3-2.9,2.6c-0.1,1,0.6,1.9,1.6,2.3
				c0.9,0.3,2,0.1,2.9-0.2c2.8-1.1,4.7-3.5,5.9-6.4C125.1,42.8,123.6,42.2,122.4,41.2z"/>
		</g>
		<g>
			<path class="st5" d="M126.3,43.3c-0.3,0.7-0.7,1.5-1.1,2.1c-1.3,2.1-4.9,5.7-7.7,4.1c-2.6-1.5,0.1-3.3,1.4-4
				c0.8-0.5,1.6-1,2.2-1.7c0.6-0.7,1.2-1.5,1.5-2.4c-0.2-0.1-0.3-0.3-0.4-0.4c-0.3,0.8-0.8,1.7-1.5,2.4c-1.3,1.4-4.1,2-4.8,3.9
				c-0.6,1.9,1.3,3.2,3,3.1c3.8-0.1,6.4-3.5,7.8-6.9C126.6,43.5,126.4,43.4,126.3,43.3z"/>
		</g>
	</g>
	<g>
		<circle class="st5" cx="74.3" cy="31.3" r="0.5"/>
	</g>
	<g>
		<circle class="st5" cx="64.6" cy="35.8" r="0.6"/>
	</g>
	<g>
		<g>
			<path class="st5" d="M69.7,50.6c-1.3,1.2-2.2,2.8-2.6,4.5c-0.2,0.9-0.3,2,0.3,2.7c0.2,0.2,0.4,0.5,0.3,0.7
				c-0.1,0.1-0.2,0.1-0.3,0.2c-0.9,0.3-2,0.6-2.9,0.4c-0.8-0.2-1.4-0.8-1.9-1.4c-0.6-0.7-1.3-1.5-1.5-2.4c-0.2-1,0-2,0.3-2.9
				c0.4-1.1,0.9-2.2,1.8-3c1.3-1,3-1,4.6-0.9c0.5,0,1,0.1,1.4,0.3c0.4,0.2,0.8,0.6,0.9,1c0.1,0.5-0.2,1-0.7,1.1"/>
		</g>
		<g>
			<g>
				<path class="st5" d="M69.5,50.4c-1.4,1.4-2.4,3.1-2.8,5c-0.1,0.6-0.1,1.2,0.1,1.8c0.2,0.6,0.7,0.8,0.1,1.3
					c-0.5,0.4-1.8,0.3-2.3,0.2c-1.3-0.4-2.6-2-3-3.2c-0.5-1.4,0-3,0.6-4.3c0.6-1.3,1.6-2.2,3.1-2.4c0.6-0.1,1.1-0.1,1.7-0.1
					c0.3,0,0.6,0,0.9,0C68.9,48.5,69.4,49.1,69.5,50.4c-0.5,0.2-0.3,0.8,0.1,0.6c0.6-0.2,1-0.7,0.9-1.4c-0.2-1-1.2-1.3-2.1-1.5
					c-2.2-0.3-4.8-0.1-6.2,1.8c-1.5,2-2.1,4.9-0.5,7.1c1.5,2.1,3.7,3.2,6.1,1.7c0.1-0.1,0.2-0.2,0.1-0.3c0-0.5-0.1-0.4-0.3-0.8
					c-0.4-1-0.5-1.6-0.3-2.7c0.4-1.6,1.3-3,2.5-4.1C70.2,50.6,69.8,50.1,69.5,50.4L69.5,50.4z"/>
			</g>
		</g>
	</g>
	<g>
		<g>
			<path class="st2" d="M77.9,49.8c-0.4,0.6-0.9,1.2-1.5,1.4s-1.6,0-1.7-0.7c-0.3,0.5-1,0.8-1.6,0.6c-0.6-0.1-1-0.7-1.1-1.3
				c-0.3,0.5-0.9,0.7-1.4,0.6c-0.5-0.1-1-0.6-1-1.1c-0.5,0.4-1.1,0.8-1.7,0.8c-0.6,0-1.3-0.4-1.4-1.1c-0.6,0.7-1.8,0.6-2.3-0.2
				c0.4-0.5,1.1-0.5,1.7-0.4c3.5,0.2,7,0.5,10.5,1c0.6,0.1,1.3,0.3,1.2,0.9"/>
		</g>
		<g>
			<g>
				<path class="st5" d="M77.6,49.6c-0.3,0.4-1.9,2.6-2.7,0.8c-0.1-0.2-0.3-0.3-0.5-0.1c-0.7,0.9-1.4,0.7-2.2-0.5
					c-0.1-0.2-0.4-0.3-0.5-0.1c-0.9,1-1.5,0.9-1.9-0.4c0-0.2-0.3-0.3-0.4-0.2c-0.7,0.5-2.2,1.3-2.7-0.1c-0.1-0.2-0.3-0.3-0.5-0.1
					c-1.2,0.5-1.5,0.5-1,0.1c0.1-0.2,0.3-0.3,0.6-0.2c0.4-0.1,1,0,1.5,0.1c1.1,0.1,2.1,0.1,3.2,0.2c1,0.1,1.9,0.2,2.9,0.3
					c0.8,0.1,3.7,0,3.9,1.1c0.1,0.4,0.7,0.2,0.6-0.2c-0.1-0.8-0.7-1-1.5-1.1c-1.5-0.3-3.2-0.4-4.7-0.6c-1.7-0.2-3.3-0.3-5-0.4
					c-1-0.1-2-0.2-2.8,0.5c-0.1,0.1-0.1,0.3,0,0.4c0.7,0.9,1.9,0.9,2.7,0.2c-0.2,0-0.3-0.1-0.5-0.1c0.6,1.7,2.4,1.4,3.6,0.5
					c-0.1-0.1-0.3-0.1-0.4-0.2c0.4,1.4,1.9,1.8,2.9,0.7c-0.2,0-0.3-0.1-0.5-0.1c0.4,1.5,2.1,2,3.2,0.8c-0.2,0-0.3-0.1-0.5-0.1
					c0.9,2.1,2.9,0.5,3.8-0.6C78.4,49.6,77.8,49.3,77.6,49.6L77.6,49.6z"/>
			</g>
		</g>
	</g>
	<g>
		<g>
			<path class="st17" d="M64.4,58.8c1-0.3,1.6-1.4,1.4-2.4c0-0.2-0.1-0.5,0-0.6c0.1-0.1,0.2-0.1,0.3-0.2c1-0.4,2.2,0.1,3,0.8
				c0.7,0.6,1.5,1.4,2.4,1.2c0.5-0.1,0.9-0.4,1.3-0.6s1-0.4,1.4,0c0.2,0.2,0.3,0.5,0.5,0.7c0.3,0.5,1,0.6,1.5,0.4
				c0.5-0.2,0.8-0.9,0.7-1.4c-0.1-0.7-0.9-1.2-1.6-1.2c-0.7-0.1-1.4,0.1-2.1,0.3s-1.4,0.3-2.1,0.1c-1-0.3-1.6-1.1-2.5-1.6
				c-0.8-0.4-1.7-0.5-2.6-0.5c-0.7,0-1.4,0-2,0.3c-1.1,0.6-1.4,1.9-1.7,3.1"/>
		</g>
		<g>
			<g>
				<path class="st5" d="M64.5,59c0.7-0.3,1.1-0.7,1.4-1.4c0.2-0.4,0-1,0.1-1.3c0.9-1.9,4.1,1.8,5.5,1.6c0.2,0,0.4-0.1,0.6-0.2
					c0.4-0.2,0.8-0.4,1.2-0.6c0.4,0.2,0.8,0.4,1.2,0.7c0.4,0.3,0.6,0.6,1.1,0.6c0.9,0.1,1.7-0.7,1.7-1.7c-0.1-1-1-1.6-1.9-1.7
					c-1.2-0.2-2.3,0.4-3.4,0.4c-1.4,0-2-0.9-3.2-1.5c-1.3-0.7-3.5-0.9-4.8-0.3c-1.2,0.6-1.6,2-1.9,3.3c-0.1,0.4,0.5,0.5,0.6,0.2
					c0.2-0.7,0.3-1.6,0.8-2.2c0.7-0.9,1.7-1,2.8-1c1.8,0.1,2.6,0.8,4,1.7c0.9,0.5,1.8,0.5,2.9,0.3c0.6-0.1,1.2-0.3,1.8-0.4
					c0.3,0,0.5,0,0.8,0.1c1.9,0.3,1,3.3-0.9,1.4c0.1,0-0.7-0.6-0.7-0.6c-1.2-0.4-2.3,1-3.5,0.6c-1-0.3-1.7-1.5-2.8-1.8
					c-0.6-0.2-1.7-0.4-2.2,0.2c-0.1,0.1-0.1,0.3-0.2,0.5c-0.1,0.5,0.1,0.7,0,1.2c-0.2,0.6-0.6,1-1.2,1.3
					C63.9,58.7,64.2,59.2,64.5,59L64.5,59z"/>
			</g>
		</g>
	</g>
	<g>
		<path class="st22" d="M66,64.4c0.2-0.3,0-0.7-0.2-1c-0.4-0.6-0.9-1.2-1.6-1.2c-0.1,0-0.3,0-0.4,0.1c-0.1,0.1-0.1,0.1-0.1,0.2
			c-0.2,0.4-0.2,0.9-0.1,1.3c0.1,0.4,0.3,0.8,0.5,1.2c0.1,0.2,0.3,0.5,0.5,0.6c0.4,0.3,1,0.1,1.3-0.3c0.3-0.4,0.3-0.9,0.2-1.4"/>
		<g>
			<path class="st5" d="M66.3,64.5c0.3-0.9-0.8-2.2-1.6-2.4c-1.2-0.4-1.6,0.7-1.4,1.7c0.2,0.9,0.7,2.4,1.8,2.4
				c1.2,0,1.5-1.3,1.3-2.2c-0.1-0.4-0.6-0.2-0.6,0.2c0.1,0.6-0.2,1.9-1.1,1.3c-0.3-0.2-0.7-1.2-0.8-1.5c-0.2-0.6-0.1-1.7,0.9-1.1
				c0.4,0.3,1.1,1,1,1.6C65.5,64.7,66.1,64.8,66.3,64.5L66.3,64.5z"/>
		</g>
	</g>
	<g>
		<path class="st22" d="M64.1,66.2c0.1-1-0.2-1.9-0.8-2.7c-0.1-0.2-0.3-0.3-0.5-0.4c-0.2-0.1-0.5-0.1-0.6,0
			c-0.3,0.2-0.3,0.5-0.4,0.8c-0.2,0.7-0.3,1.5,0.1,2.1c0.3,0.4,0.7,0.7,1.2,0.7c0.5,0,1-0.2,1.3-0.5"/>
		<g>
			<path class="st5" d="M64.4,66.2c0.1-1.1-0.3-2.3-1.1-3c-0.8-0.7-1.7-0.4-1.9,0.6c-0.2,0.9-0.4,2.1,0.4,2.8
				C62.7,67.2,63.8,67,64.4,66.2c0.4-0.2-0.1-0.6-0.3-0.3c-0.6,0.5-1.6,0.7-2-0.1c-0.3-0.5-0.2-1.3,0-1.8c0-0.2,0.1-0.3,0.1-0.4
				c0.3,0,0.5,0,0.8,0.1c0.3,0.1,0.5,0.6,0.6,0.8c0.3,0.6,0.4,1.2,0.3,1.8C63.8,66.6,64.4,66.6,64.4,66.2L64.4,66.2z"/>
		</g>
	</g>
	<g>
		<path class="st22" d="M44.6,66.8c-0.1-0.4-0.2-0.8-0.3-1.3c-0.1-0.4-0.2-0.8-0.1-1.2c0.1-0.4,0.3-0.8,0.7-0.9
			c0.3-0.1,0.7,0.1,0.9,0.4c0.2,0.3,0.4,0.6,0.5,0.9c0.1,0.2,0.1,0.3,0.2,0.5c0.2,0.4,0.3,0.8,0.1,1.2c-0.2,0.3-0.6,0.4-1,0.5
			c-0.4,0.1-0.9,0.1-1.2-0.2"/>
		<g>
			<path class="st5" d="M44.9,66.7c-0.1-0.6-0.4-1.3-0.4-1.9c0-0.3,0-0.7,0.2-0.9c0.5-0.5,1,0.1,1.2,0.5c0.2,0.4,0.7,1.3,0.5,1.7
				c-0.2,0.5-1.4,0.7-1.7,0.3c-0.3-0.2-0.7,0.2-0.4,0.4c0.6,0.5,1.8,0.4,2.4-0.1c0.8-0.7,0.1-2.1-0.3-2.8c-0.4-0.7-1.4-1.2-2.1-0.5
				c-0.8,0.9-0.2,2.4,0,3.4C44.4,67.2,45,67.1,44.9,66.7L44.9,66.7z"/>
		</g>
	</g>
	<g>
		<path class="st22" d="M44.2,66.8c0,0.5-0.3,0.9-0.8,1.1c-0.5,0.1-1-0.1-1.3-0.4c-0.1-0.2-0.2-0.5-0.2-0.7c-0.1-0.6,0-1.3,0.1-1.9
			c0.1-0.2,0.2-0.4,0.3-0.5c0.3-0.2,0.7,0.1,0.9,0.3C43.8,65.2,44.1,66,44.2,66.8"/>
		<g>
			<path class="st5" d="M43.9,66.8c-0.1,0.5-0.5,0.9-1,0.8c-0.4-0.1-0.6-0.4-0.7-0.8c-0.1-0.5-0.1-1.2,0-1.7
				c0.1-0.3,0.1-0.7,0.5-0.5c0.3,0.1,0.5,0.5,0.6,0.7C43.7,65.8,43.8,66.3,43.9,66.8c-0.1,0.4,0.5,0.5,0.5,0.1c0-1-0.4-2.4-1.4-2.8
				c-1-0.4-1.3,0.7-1.4,1.5c-0.1,0.9,0,2.2,0.9,2.6c1,0.4,1.9-0.3,2-1.3C44.5,66.4,43.9,66.4,43.9,66.8L43.9,66.8z"/>
		</g>
	</g>
	<g>
		<path class="st5" d="M44,67.4c0.4,0,0.4-0.6,0-0.6C43.7,66.8,43.7,67.4,44,67.4L44,67.4z"/>
	</g>
	<g>
		<path class="st22" d="M48.8,62.8c-0.3-0.5-0.5-1.1-0.7-1.7c0-0.1,0-0.2,0-0.3c0.1-0.3,0.5-0.3,0.7-0.3c0.7,0.2,1.1,0.8,1.3,1.5
			c0.1,0.2,0.1,0.5,0,0.7c-0.1,0.2-0.4,0.4-0.6,0.4c-0.3,0-0.5,0-0.7-0.1"/>
		<g>
			<path class="st5" d="M49,62.6c-0.2-0.4-0.4-0.8-0.5-1.2c-0.1-0.2-0.2-0.5,0.1-0.7c0.1-0.1,0.4,0.1,0.5,0.2
				c0.3,0.2,0.5,0.5,0.7,0.8c0.1,0.1,0.2,0.4,0.2,0.5c0,0.7-0.6,0.5-1,0.4c-0.4-0.1-0.5,0.5-0.2,0.6c0.7,0.2,1.6,0.2,1.8-0.7
				c0.1-0.7-0.4-1.6-1-2.1c-0.4-0.3-1.3-0.6-1.6,0c-0.2,0.3-0.1,0.7,0,1c0.1,0.5,0.4,1,0.6,1.4C48.7,63.3,49.2,63,49,62.6L49,62.6z"
				/>
		</g>
	</g>
	<g>
		<path class="st20" d="M23,37.6c-0.2-0.7-0.3-1.3-0.5-2c-0.1-0.2-0.1-0.4-0.2-0.6c-0.3-0.4-0.9-0.5-1.4-0.2c-0.4,0.2-0.7,0.7-1,1.1
			s-0.4,0.9-0.8,1.3"/>
		<g>
			<path class="st5" d="M23.3,37.5c-0.3-1.1-0.3-3.2-1.8-3.2c-1.4,0-1.8,1.8-2.5,2.7c-0.2,0.3,0.3,0.6,0.5,0.3
				c0.5-0.7,0.8-2,1.7-2.3c1.2-0.4,1.4,1.9,1.5,2.7C22.8,38.1,23.4,37.9,23.3,37.5L23.3,37.5z"/>
		</g>
	</g>
	<g>
		<path class="st20" d="M16.2,35.9c0.2-0.4,0.5-0.7,0.6-1.2c0.1-0.4,0-0.9-0.3-1.2c-0.3-0.3-0.9-0.4-1.3-0.2S14.3,33.7,14,34"/>
		<g>
			<path class="st5" d="M16.4,36c0.5-0.8,1.1-2.2,0.1-2.9c-1-0.7-2,0-2.8,0.7c-0.3,0.2,0.1,0.7,0.4,0.4c0.5-0.4,1.3-1.1,2-0.6
				c0.8,0.5,0.2,1.5-0.2,2.1C15.7,36,16.2,36.3,16.4,36L16.4,36z"/>
		</g>
	</g>
	<g>
		<path class="st20" d="M11.8,32.2c0.6-0.2,0.8-0.8,0.9-1.4c0.1-0.4,0.1-0.8-0.2-1c-0.1-0.1-0.3-0.2-0.4-0.2c-0.7-0.1-1.5,0.1-2,0.5
			"/>
		<g>
			<path class="st5" d="M11.9,32.5c0.9-0.3,1.4-1.7,1-2.6c-0.5-1.1-2.3-0.6-3-0.1c-0.3,0.2,0,0.8,0.3,0.5c0.5-0.3,1.9-1,2.2-0.2
				c0.2,0.5-0.2,1.6-0.7,1.8C11.4,32,11.6,32.6,11.9,32.5L11.9,32.5z"/>
		</g>
	</g>
	<g>
		<path class="st20" d="M8.5,27.8c0.3,0,0.6-0.3,0.7-0.5c0.3-0.3,0.5-0.7,0.5-1.1c-0.1-0.4-0.5-0.8-0.9-0.8s-0.9,0.2-1.3,0.4"/>
		<g>
			<path class="st5" d="M8.6,28.1c0.9-0.2,1.7-1.5,1.4-2.3c-0.5-1.1-1.8-0.9-2.6-0.3c-0.3,0.2,0,0.7,0.3,0.5
				c0.5-0.3,1.5-0.7,1.7,0.1c0.2,0.5-0.5,1.4-1,1.4C8.1,27.6,8.2,28.2,8.6,28.1L8.6,28.1z"/>
		</g>
	</g>
	<g>
		<path class="st20" d="M6.7,23.6c0.4-0.2,0.8-0.5,1.1-0.9c0.1-0.1,0.2-0.3,0.2-0.5c0-0.4-0.3-0.7-0.6-0.8c-0.4-0.1-0.7-0.1-1.1,0"
			/>
		<g>
			<path class="st5" d="M6.8,23.8c0.7-0.3,1.5-1,1.4-1.9c-0.2-1-1.3-1-2.1-0.9c-0.4,0.1-0.2,0.7,0.2,0.6c0.5-0.1,1.6-0.1,1.3,0.7
				c-0.2,0.4-0.6,0.7-1,0.9C6.2,23.5,6.5,24,6.8,23.8L6.8,23.8z"/>
		</g>
	</g>
	<g>
		<path class="st20" d="M5.9,19.7c0.5,0,0.8-0.4,1-0.8C7,18.7,7,18.5,7,18.4c0-0.2-0.2-0.4-0.4-0.6c-0.2-0.1-0.4-0.1-0.7-0.2"/>
		<g>
			<path class="st5" d="M5.9,20c0.7,0,1.2-0.7,1.4-1.3c0.3-0.8-0.5-1.2-1.2-1.3c-0.4-0.1-0.5,0.5-0.2,0.6c0.2,0,0.4,0,0.6,0.1
				c0.3,0.2,0.2,0.4,0.1,0.6c-0.1,0.3-0.4,0.7-0.7,0.7C5.5,19.4,5.5,20,5.9,20L5.9,20z"/>
		</g>
	</g>
	<g>
		<path class="st20" d="M6.1,16.5c0.5-0.1,1-0.3,1.4-0.8c0.1-0.1,0.1-0.2,0.1-0.3c0-0.1,0-0.2-0.1-0.2c-0.2-0.3-0.5-0.5-0.8-0.7"/>
		<g>
			<path class="st5" d="M6.1,16.8c0.6-0.1,1.3-0.4,1.7-1c0.4-0.6-0.4-1.2-0.9-1.5c-0.3-0.2-0.6,0.3-0.3,0.5C6.7,14.9,6.8,15,7,15.1
				c0.2,0.2,0.3,0.3,0.1,0.5c-0.3,0.3-0.6,0.5-1,0.5C5.7,16.2,5.7,16.8,6.1,16.8L6.1,16.8z"/>
		</g>
	</g>
	<g>
		<path class="st20" d="M7,13.2c0.3,0,0.6-0.1,0.9-0.3c0.3-0.2,0.5-0.4,0.5-0.8c0-0.3-0.3-0.6-0.6-0.6"/>
		<g>
			<path class="st5" d="M7,13.5c0.6-0.1,1.3-0.3,1.6-1c0.2-0.6-0.2-1.2-0.8-1.2c-0.4,0-0.4,0.6,0,0.6c0.4,0,0.2,0.5,0.1,0.7
				c-0.3,0.2-0.6,0.3-1,0.3C6.5,12.9,6.7,13.5,7,13.5L7,13.5z"/>
		</g>
	</g>
	<g id="XMLID_4_">
		<g>
			<path class="st5" d="M66.9,20.2c0.7,0.2,1.2,0.9,1.2,1.8c0,1.2-1,1.9-1.9,2.4c0.4,0.6,0.4,1.4,0,2.1c-0.2,0.4-0.6,0.6-1,0.8
				c-0.4,0.2-1.8,0.1-2,0.3c-0.2,0.2-0.3,1-0.4,1.3c-0.2,0.4-0.6,0.7-1,0.9c-0.7,0.4-1.5,0.3-2.2-0.1c0,1.3-1.1,2.2-2.3,2
				c0,0,0.1,0.1,0.1,0.1c0.7,1,0.4,2.2-0.5,2.9c1.2,0.5,1.6,1.9,1,3c0.6,0.1,1.1,0.4,1.4,1c0.4,0.9,0,1.7-0.7,2.3
				c0.5,0.3,0.8,0.7,0.9,1.4c0.1,0.8-0.4,1.3-0.9,1.9c-0.4,0.5-0.3,0.5-0.3,1.1c0,0.3-0.1,0.7-0.3,1c-0.3,0.7-0.9,1.1-1.6,1.3
				c0.3,1-0.2,2-1.2,2.6c-0.6,0.3-1.3,0.2-1.9,0.5c-0.5,0.2-0.6,0.6-1,0.8c-0.7,0.3-1.5-0.1-1.8-0.8c-0.4-0.8,0-1.6,0.6-2.3
				c-0.3-0.1-0.5-0.3-0.6-0.6c-0.2-0.5,0-1,0.3-1.5c-0.7-0.2-0.8-1.1-0.7-1.9c-1.3,0.1-1.3-2.6-2-3c0,0.6-0.3,1.2-0.9,1.5
				c1,0.8,0.4,2.2-0.7,2.9c0.4,0.3,0.5,0.9,0.4,1.4c-0.2,0.9-1.1,1.3-1.9,1.6c0.3,0.7,0,1.6-0.7,2.1c-0.9,0.6-2,0.3-2.9-0.2
				c-0.3,1.6-2.2,2.1-3.3,1c-0.4,0.8-1.5,1.2-2.3,0.4c-1-1-0.4-2.2,0.6-2.8c-0.2-0.2-0.3-0.4-0.3-0.7c-0.1-0.7,0.4-1.2,1-1.6
				c-0.9-0.7-0.6-1.9-0.1-2.9c-1.2-0.1-1.6-1.5-1.3-2.7c-0.5,0.1-1.1,0.1-1.7-0.2c-0.1,1.1-0.9,1.9-1.9,2.2c0.7,0.8,0.4,2-0.1,3
				c0.9,0.1,1.6,1,1,2c-0.7,1.1-1.9,0.8-2.5-0.1c-0.4,0.4-1.1,0.5-1.7,0.3c-1-0.4-1.2-1.5-1.3-2.5c-0.5,0.2-1.1,0.1-1.6-0.4
				c-0.8-0.8-0.5-2,0-2.9c-0.7-0.6-1.2-1.4-1.2-2.5c0-0.6,0.3-1.2,0.6-1.6c0.3-0.3,0.6-0.5,0.8-0.9c0.1-0.4,0-0.9,0.1-1.4
				c0.2-0.4,0.4-0.8,0.8-1.1c0.7-0.6,1.6-0.6,2.5-0.4c0.2-1.3,1.3-2.1,2.6-1.7c-0.4-0.9-0.2-1.9,0.7-2.7c-0.8-0.6-1.2-1.7-0.9-2.7
				c-0.8,0.3-1.7,0.1-2.3-0.6c-0.5,0.9-1.9,1.2-2.6,0.1c-0.9-1.5,0.5-2.7,1.9-2.7c0.1-1.9,2.2-2.1,3.8-1.9c0.3-1.8,3.3-2.2,4.3-0.8
				c0.7-0.5,1.5-0.7,2.3-0.3c0.3,0.1,0.6,0.3,0.8,0.6c0.3,0.3,0.3,0.9,0.6,1.2c0.5,0.5,1.3,0.4,1.8,1.2c0.2,0.3,0.3,0.6,0.3,0.9
				c0-0.1,0.1-0.2,0.2-0.4c0.4-0.6,0.9-0.9,1.5-1.1c-0.8-1-0.2-2.3,0.7-3.2c-1-0.2-2.1-0.7-2-1.7c-1.1,0.2-2.2-0.7-1.8-1.9
				c0.5-1.4,3.1-2,4.3-1.2c0.8-1.6,4-1,4.2,0.6c1.2-0.8,2.8,0,2.8,1.6c1.6-0.3,2.5,1.7,1.3,2.8c0.6-0.1,1.2,0,1.8,0.3
				c-0.1-1.4,1.6-1.7,3-1.6c-0.7-1.4,0.3-3,1.9-3c-0.2-0.9,0.1-1.8,0.8-2.5c-1.1-0.6-1.2-2.2,0.1-2.9c1.6-0.8,2.9,0.6,3,2.1
				c0.6-0.1,1.3,0.1,1.7,0.6c0.6,0.8,0.4,1.7,0.1,2.5c0.6,0.1,1,0.4,1.2,1C67.9,18.9,67.4,19.6,66.9,20.2z M66.9,23.1
				c1-1,0.8-1.8-0.7-2.5c-0.3,0-0.4-0.3-0.2-0.5c0.2-0.2,0.4-0.4,0.6-0.6c0.6-0.6,0.4-1.2-0.6-1.9c-0.3,0-0.5-0.2-0.3-0.4
				c0.7-1.3,0.4-2.9-1.2-2.6c-0.2,0.1-0.5,0-0.5-0.3c0-0.7-0.1-1.2-0.7-1.7c-0.7-0.8-1.4-0.5-2,0.9c0.3,0.3,0.6,0.5,0.9,0.8
				c0.3,0,0.3,0.4,0.1,0.5c-0.9,0.6-1.2,1.6-0.8,2.6c0.1,0.2-0.2,0.4-0.4,0.4c-1.8-0.1-2.3,0.7-1.5,2.5c0.2,0.2,0,0.6-0.3,0.5
				c-0.3-0.1-0.6-0.1-0.9-0.2c-0.9-0.2-1.5,0.3-1.9,1.6c0.1,0.2-0.2,0.5-0.4,0.3c-1.6-1.2-3.6-0.6-4.2,1.3c-0.1,0.4-0.7,0.2-0.6-0.2
				c0.3-1.1,1.1-1.8,2-2.2c-0.1-0.1-0.1-0.3,0.1-0.4c1.2-1,0.4-2.1-0.9-1.8c-0.2,0.1-0.4-0.2-0.4-0.4c-0.3-1.6-1-2.1-2.4-1
				c-0.2,0.2-0.7,0.1-0.5-0.2c0.7-1.7-2.9-2.2-3.1-0.7c0,0.3-0.4,0.3-0.5,0.1c-0.4-0.6-1.8-0.5-2.4-0.3c-0.9,0.1-1.2,0.5-0.9,1.3
				c-0.2,0.9,0.2,1.1,1.2,0.7c0.3-0.2,0.6,0.2,0.4,0.4c-0.4,1.2,0.7,1.6,1.9,1.5c0.3,0,0.4,0.3,0.2,0.5c-0.8,0.8-2,2.2-0.7,3.2
				c0.3,0.2,0.2,0.5-0.2,0.6c-1.3,0.2-2.1,1.2-2,2.5c0,0.1-0.1,0.2-0.2,0.3c-1.7,0.6-2,2.7-0.5,3.7c0.3,0.2,0,0.7-0.3,0.5
				c-1.7-1.1-1.7-3.1-0.2-4.4c0.1-0.1,0.1-0.1,0.2-0.1c-0.1-0.1-0.2-0.2-0.1-0.4c0.5-1.6,0-2.4-1.5-2.5c-0.2,0-0.3-0.1-0.3-0.3
				c0-1.5-1.8-2.4-3-1.3c-0.2,0.2-0.4,0.1-0.5-0.1c-0.5-1.2-3.4-0.7-3.4,0.6c0,0.2-0.2,0.3-0.4,0.3c-1.2-0.2-3.6-0.5-3.4,1.6
				c0,0.2-0.2,0.3-0.4,0.3c-3.8,0.2-1,3.6,0,1.4c0-0.3,0.4-0.4,0.6-0.2c0.6,0.9,1.8,1.1,2.6,0.3c0.2-0.2,0.7,0.1,0.5,0.4
				c-0.8,1-0.5,2.4,0.6,3c0.2,0.1,0.2,0.4,0,0.5c-1.6,0.9-1.1,3.1,0.8,3.2c0.4,0,0.4,0.6,0,0.6c-0.7,0-1.2-0.3-1.6-0.6
				c-0.1,0-0.2,0.1-0.3,0c-1.6-0.4-2.4,0.1-2.2,1.4c0,0.2-0.3,0.4-0.5,0.3c-1.7-0.8-3.3,0.6-2.8,2.4c0,0.1,0,0.3-0.1,0.3
				c-1.6,0.9-1.8,3-0.2,4.1c0.1,0.1,0.2,0.3,0.1,0.4c-0.9,1.5-0.6,3.1,1.1,2.5c0.2-0.2,0.5-0.1,0.5,0.2c0,0.3,0,0.6,0,0.9
				c0,1.3,0.7,1.7,2.1,1.2c0.1-0.2,0.5-0.2,0.6,0.1c1.1,2.2,3.1-0.8,0.7-0.7c-0.2,0-0.5-0.2-0.3-0.4c0.5-0.8,1.4-2.2,0-3
				c-0.3-0.2-0.1-0.5,0.2-0.6c1.3-0.1,2.1-1,2-2.3c0-0.2,0.3-0.4,0.5-0.3c1.2,0.9,2.8,0.4,3-1.2c0-0.4,0.6-0.4,0.6,0
				c-0.1,0.9-0.5,1.5-1.1,1.9v0c-0.5,0.9-0.1,1.7,1,2.4c0.2,0,0.5,0.2,0.3,0.4c-0.4,0.7-1.4,2.2,0,2.8c0.2,0.1,0.2,0.4,0,0.5
				c-0.7,0.3-0.8,0.9-0.5,1.7c0.3,0,0.4,0.5,0.1,0.6c0,0,0,0-0.1,0v0c0,0,0,0,0,0c-0.6,0-0.9,0.3-1,0.9c-0.6,1.2,0.8,2.3,1.4,0.6
				c0-0.3,0.4-0.4,0.6-0.2c1.1,1.4,2,1.1,2.6-0.7c0-0.2,0.3-0.4,0.5-0.3c0.4,0.3,0.8,0.5,1.2,0.6c1.5,0.3,2.1-0.3,1.8-1.8
				c-0.1-0.2,0-0.4,0.2-0.4c0.3-0.1,0.5-0.1,0.8-0.3c0.8-0.2,1-0.9,0.5-2c-0.3-0.1-0.1-0.5,0.1-0.6c1.3-0.9,1.7-1.7,0.4-2.4
				c-0.3-0.1-0.3-0.5,0-0.6c1.2-0.1,1.3-0.9,0.3-2.4c-0.2-0.1-0.3-0.4-0.1-0.5c1.7-0.8,1.6-3.1-0.3-3.6c-0.4-0.1-0.2-0.7,0.2-0.6
				c2.2,0.6,2.6,3.2,0.9,4.4c0.3,0.2,0.5,0.5,0.7,0.8c0.4,0,0.7,0.1,1,0.4c0.3,0.4,0.7,3,1.4,2.6c0.2-0.1,0.5,0.1,0.4,0.3
				c-0.4,0.6-0.2,1.1,0.5,1.6c0.3-0.1,0.5,0.3,0.3,0.5c-0.6,0.5-0.6,1.1,0,1.7c0.3-0.1,0.5,0.3,0.3,0.5c-0.3,0.3-0.5,0.6-0.7,0.9
				c-0.2,2,0.8,1.9,1.4,0.9c0.1,0,0.4-0.2,0.4-0.3c0.1,0,0.3,0,0.4-0.1c0.4,0,0.7,0,1.1-0.1c1.2-0.5,1.6-1.2,1.1-2.3
				c-0.1-0.1,0.1-0.3,0.2-0.4c1.3-0.2,2.1-1.5,1.6-2.7c0-0.1,0-0.3,0.1-0.3c0.7-0.3,2.7-2.1,0.3-2.7c-0.3-0.1-0.3-0.4-0.1-0.6
				c1.3-0.9,1.1-1.8-0.6-2.6c-0.3,0.1-0.5-0.3-0.3-0.5c1-1.1,0.5-2.5-1-2.7c-0.3,0-0.2-0.5,0-0.6c2-0.7,0.9-2.7-0.3-3.2
				c-0.9-0.4-1.9-0.1-2.8,0.3c-0.3,0.2-0.7-0.4-0.3-0.5c1-0.5,2.3-0.7,3.3-0.3c0.1-0.2,0.3-0.2,0.5-0.1c1.9,0.6,2.7,0.1,2.4-1.5
				c-0.1-0.3,0.3-0.5,0.5-0.3c1.4,1.2,3.3,0.1,3.1-1.6c0-0.2,0.2-0.3,0.3-0.3c0.5,0,0.9,0,1.4,0c0.7,0,1.3-0.4,1.7-1.1
				c-0.1-0.4-0.2-0.8-0.4-1.2c-0.2-0.2-0.1-0.4,0.1-0.5C66,23.7,66.5,23.4,66.9,23.1z"/>
			<path class="st23" d="M52.4,50.2c-0.7,1-1.7,1.1-1.4-0.9c0.2-0.3,0.4-0.6,0.7-0.9c0.2-0.2,0-0.6-0.3-0.5c-0.7-0.7-0.7-1.2,0-1.7
				c0.2-0.2,0-0.6-0.3-0.5c-0.7-0.5-0.9-1-0.5-1.6c0.1-0.2-0.2-0.5-0.4-0.3c-0.7,0.4-1.1-2.2-1.4-2.6c-0.3-0.3-0.6-0.5-1-0.4
				c-0.1-0.3-0.4-0.6-0.7-0.8c1.7-1.2,1.3-3.8-0.9-4.4c-0.4-0.1-0.5,0.5-0.2,0.6c1.9,0.5,2,2.8,0.3,3.6c-0.3,0.1-0.2,0.5,0.1,0.5
				c1,1.5,0.9,2.3-0.3,2.4c-0.3,0-0.3,0.5,0,0.6c1.2,0.7,0.8,1.5-0.4,2.4c-0.2,0.1-0.3,0.4-0.1,0.6c0.5,1.1,0.3,1.8-0.5,2
				c-0.3,0.1-0.5,0.2-0.8,0.3c-0.2,0-0.3,0.3-0.2,0.4c0.4,1.4-0.2,2-1.8,1.8c-0.4-0.1-0.8-0.3-1.2-0.6c-0.2-0.1-0.5,0-0.5,0.3
				c-0.6,1.8-1.5,2-2.6,0.7c-0.2-0.3-0.5-0.1-0.6,0.2c-0.6,1.7-2,0.7-1.4-0.6c0.1-0.6,0.4-0.9,1-0.9c0,0,0,0,0,0v0c0,0,0,0,0.1,0
				c0.3-0.1,0.3-0.6-0.1-0.6c-0.3-0.9-0.2-1.5,0.5-1.7c0.2-0.1,0.2-0.4,0-0.5c-1.4-0.7-0.5-2.1,0-2.8c0.2-0.2-0.1-0.5-0.3-0.4
				c-1.1-0.7-1.5-1.5-1-2.4v0c0.6-0.4,1-1.1,1.1-1.9c0-0.4-0.6-0.4-0.6,0c-0.1,1.7-1.8,2.2-3,1.2c-0.2-0.1-0.5,0-0.5,0.3
				c0.1,1.2-0.7,2.2-2,2.3c-0.3,0-0.4,0.4-0.2,0.6c1.4,0.8,0.4,2.2,0,3c-0.1,0.2,0.1,0.5,0.3,0.4c2.4-0.2,0.4,2.9-0.7,0.7
				c-0.1-0.2-0.4-0.3-0.6-0.1c-1.4,0.5-2.1,0.1-2.1-1.2c0-0.3,0-0.6,0-0.9c0-0.3-0.3-0.4-0.5-0.2c-1.7,0.6-1.9-1-1.1-2.5
				c0.1-0.2,0-0.3-0.1-0.4c-1.6-1.1-1.4-3.2,0.2-4.1c0.1-0.1,0.2-0.2,0.1-0.3c-0.5-1.8,1.1-3.2,2.8-2.4c0.2,0.1,0.5,0,0.5-0.3
				c-0.1-1.3,0.6-1.8,2.2-1.4c0.1,0.1,0.2,0,0.3,0c0.4,0.4,0.9,0.6,1.6,0.6c0.4,0,0.4-0.6,0-0.6c-1.9,0-2.4-2.2-0.8-3.2
				c0.2-0.1,0.2-0.4,0-0.5c-1.1-0.6-1.4-2-0.6-3c0.2-0.3-0.2-0.6-0.5-0.4c-0.8,0.8-2,0.6-2.6-0.3c-0.2-0.3-0.5-0.1-0.6,0.2
				c-1.1,2.2-3.8-1.1,0-1.4c0.2,0,0.4-0.1,0.4-0.3c-0.2-2.1,2.2-1.8,3.4-1.6c0.2,0,0.4-0.1,0.4-0.3c0-1.3,2.9-1.9,3.4-0.6
				c0.1,0.2,0.3,0.3,0.5,0.1c1.2-1,2.9-0.2,3,1.3c0,0.2,0.1,0.3,0.3,0.3c1.5,0,2,0.9,1.5,2.5c-0.1,0.2,0,0.3,0.1,0.4
				c-0.1,0-0.1,0.1-0.2,0.1c-1.5,1.3-1.5,3.3,0.2,4.4c0.3,0.2,0.6-0.3,0.3-0.5c-1.5-1-1.2-3.1,0.5-3.7c0.1,0,0.2-0.2,0.2-0.3
				c-0.1-1.3,0.7-2.3,2-2.5c0.3,0,0.4-0.4,0.2-0.6c-1.3-0.9,0-2.4,0.7-3.2c0.2-0.2,0-0.5-0.2-0.5c-1.2,0.1-2.3-0.3-1.9-1.5
				c0.1-0.2-0.2-0.6-0.4-0.4c-1,0.5-1.4,0.2-1.2-0.7c-0.3-0.7,0-1.2,0.9-1.3c0.6-0.2,2-0.3,2.4,0.3c0.1,0.2,0.5,0.2,0.5-0.1
				c0.3-1.5,3.8-1,3.1,0.7c-0.1,0.3,0.4,0.5,0.5,0.2c1.3-1.1,2.1-0.7,2.4,1c0,0.2,0.1,0.5,0.4,0.4c1.3-0.3,2.1,0.8,0.9,1.8
				c-0.2,0.1-0.2,0.3-0.1,0.4c-0.9,0.3-1.6,1.1-2,2.2c-0.1,0.4,0.5,0.5,0.6,0.2c0.6-2,2.6-2.5,4.2-1.3c0.2,0.2,0.5-0.1,0.4-0.3
				c0.3-1.3,1-1.8,1.9-1.6c0.3,0,0.6,0.1,0.9,0.2c0.3,0.1,0.5-0.3,0.3-0.5c-0.8-1.8-0.3-2.6,1.5-2.5c0.2,0,0.5-0.1,0.4-0.4
				c-0.4-1-0.2-2,0.8-2.6c0.2-0.1,0.2-0.5-0.1-0.5c-0.3-0.3-0.6-0.5-0.9-0.8c0.7-1.4,1.4-1.7,2-0.9c0.5,0.5,0.7,0.9,0.7,1.7
				c0,0.2,0.3,0.4,0.5,0.3c1.7-0.3,2,1.3,1.2,2.6c-0.1,0.2,0.1,0.5,0.3,0.4c1,0.7,1.2,1.4,0.6,1.9c-0.2,0.2-0.4,0.4-0.6,0.6
				c-0.2,0.2,0,0.5,0.2,0.5c1.4,0.6,1.6,1.4,0.7,2.5c-0.4,0.3-0.8,0.6-1.3,0.8c-0.2,0.1-0.3,0.3-0.1,0.5c0.1,0.4,0.2,0.8,0.4,1.2
				c-0.4,0.7-1,1.1-1.7,1.1c-0.5,0.1-0.9,0.1-1.4,0c-0.2,0-0.3,0.1-0.3,0.3c0.2,1.8-1.7,2.8-3.1,1.6c-0.2-0.2-0.6,0-0.5,0.3
				c0.3,1.6-0.4,2.1-2.4,1.5c-0.2-0.2-0.4-0.1-0.5,0.1c-1-0.4-2.3-0.1-3.3,0.3c-0.3,0.2,0,0.7,0.3,0.5c0.9-0.4,1.8-0.7,2.8-0.3
				c1.2,0.5,2.3,2.5,0.3,3.2c-0.2,0.1-0.3,0.5,0,0.6c1.4,0.2,2,1.7,1,2.7c-0.2,0.2,0,0.6,0.3,0.5c1.7,0.8,1.9,1.6,0.6,2.6
				c-0.2,0.1-0.2,0.5,0.1,0.6c2.4,0.6,0.4,2.4-0.3,2.7c-0.1,0.1-0.2,0.2-0.1,0.3c0.5,1.3-0.3,2.5-1.6,2.7c-0.1,0-0.3,0.2-0.2,0.4
				c0.4,1.1,0.1,1.8-1.1,2.3c-0.4,0.1-0.7,0.1-1.1,0.1c-0.1,0-0.3,0-0.4,0.1C52.8,50,52.5,50.2,52.4,50.2z"/>
		</g>
	</g>
	<path class="st5" d="M52.8,50.3C52.8,50.3,52.8,50.3,52.8,50.3C52.8,50.3,52.8,50.3,52.8,50.3z"/>
</g>
</svg>
