<?xml version="1.0" encoding="utf-8"?>
<!-- Generator: Adobe Illustrator 19.1.0, SVG Export Plug-In . SVG Version: 6.00 Build 0)  -->
<svg version="1.1" id="Layer_1" xmlns="http://www.w3.org/2000/svg" xmlns:xlink="http://www.w3.org/1999/xlink" x="0px" y="0px"
	 viewBox="0 0 199 70" style="enable-background:new 0 0 199 70;" xml:space="preserve">
<style type="text/css">
	.st0{fill:#080100;}
	.st1{fill:none;stroke:#FFFFFF;stroke-width:2;stroke-miterlimit:10;}
	.st2{fill:#FFFFFF;}
	.st3{fill:none;stroke:#FFFFFF;stroke-width:2;stroke-linecap:round;stroke-miterlimit:10;}
	.st4{fill:none;stroke:#FFFFFF;stroke-width:2;stroke-linecap:round;stroke-linejoin:round;stroke-miterlimit:10;}
	.st5{fill:#231F20;}
	.st6{fill:url(#SVGID_5_);stroke:#FFFFFF;stroke-width:2;stroke-miterlimit:10;}
	.st7{fill:url(#SVGID_6_);}
	.st8{fill:url(#SVGID_7_);}
	.st9{fill:url(#SVGID_8_);}
	.st10{fill:url(#SVGID_9_);}
	.st11{fill:url(#SVGID_10_);}
	.st12{fill:none;stroke:#FFFFFF;stroke-miterlimit:10;}
	.st13{fill:#1C75BC;}
	.st14{fill:#EAEAEA;}
	.st15{fill:#EF4136;}
	.st16{fill:#006838;stroke:#231F20;stroke-linecap:round;stroke-linejoin:round;stroke-miterlimit:10;}
	.st17{fill:#ED1C24;}
	.st18{fill:#006838;}
	.st19{fill:#FFFFFF;stroke:#231F20;stroke-linecap:round;stroke-miterlimit:10;}
	.st20{fill:#FFDE17;}
	.st21{fill:#C49A6C;}
	.st22{fill:#C2B59B;}
	.st23{fill:#A52C38;}
</style>
<g id="New_Symbol_1_">
</g>
<g id="New_Symbol">
</g>
<g>
	<g>
		<path class="st18" d="M19.8,64.8c-1.1,0-2-0.2-2.4-0.3c-1.5-0.3-4.9-1.2-5.5-3.7c-0.2-0.9,0-1.5,0.3-2.1c0.2-0.5,0.5-1.1,0.7-2.2
			c0.2-1.1,0.3-2.1,0.2-2.7c-0.3,0.2-0.6,0.4-1.1,0.4c0,0-0.2,0-0.2,0c-1.3-0.2-5.2-2.8-7.9-7.2C1.6,43.4-0.5,37.2,2.5,29
			c2.2-6.1,7.4-8.8,10.1-10.3c0.4-0.2,0.8-0.4,1-0.6c4.6-2.7,10.8-4.3,18.4-4.8c1.3-0.1,2.5-0.1,3.7-0.2c7.5-0.3,14.6-0.6,24.1-6.8
			c0.3-0.2,0.7-0.5,1.1-0.8c1.1-0.8,1.6-1.2,2.2-1.2c0.2,0,0.4,0.1,0.5,0.1c1,0.5,0.7,1.7-0.1,4c-2,5.5-10.1,9.2-14.7,10.9
			c-3.3,1.2-12,4.5-20.6,6c0,0-4.8,0.9-8.5,4.1c0,0-0.1,0.1-0.1,0.1c0,0,0.1,0,0.1,0c0.4,0.2,0.7,0.3,0.9,0.5c0,0,0,0,0,0
			c0,0,0,0,0-0.1c0.3-0.4,0.6-0.9,1.4-1.1c0.1,0,0.1,0,0.2,0c0.6,0,0.9,0.5,1.1,0.7c0.1,0.1,0.1,0.2,0.2,0.3c0-0.1,0-0.1,0.1-0.2
			c0.2-0.8,0.6-2.1,2-2.4c0,0,0.1,0,0.2,0c0.6,0,1,0.4,1.1,1.2c0.1,0.8,0.2,1.1,0.3,1.3c0.1-0.3,0.3-0.8,0.4-1.1
			c0.4-1.2,0.8-2.5,2-2.5c0.2,0,0.4,0,0.5,0.1c0.6,0.3,0.6,0.9,0.6,1.2c0,1.6,0.4,2,1.2,2c0.1-0.3,0.3-1,0.4-1.5
			c0.4-1.7,0.8-3.6,2.3-4.1c0.1,0,0.2,0,0.3,0c0,0,0,0,0,0c0.7,0,1,0.4,1,1.3c0,2.2,0.4,3.1,0.8,3.4c0.2-0.5,0.4-1.3,0.6-1.9
			c0.6-2.2,1.1-4.2,2.7-4.2c0,0,0.2,0,0.2,0c0.9,0.1,0.9,1.1,0.8,1.5c-0.2,3,0.2,4,0.6,4.3c0.3-0.4,0.7-1.4,1-2
			c0.9-2.1,1.9-4.5,3.8-4.5c0.1,0,0.2,0,0.2,0c0.3,0,0.6,0.2,0.8,0.5s0.2,0.6,0.1,0.9c-0.6,1.4-1,3.4-0.8,4.4
			c0.2-0.4,0.5-0.9,0.7-1.4c1.2-2.4,2.4-4.9,4.2-4.9c0.2,0,0.4,0,0.6,0.1c0.3,0.1,0.5,0.3,0.6,0.5c0.2,0.4,0.1,0.7-0.2,1.3
			c-1.2,2.9-1.3,4.3-1,4.9c0.5-0.6,1.2-1.6,1.7-2.4c1.8-2.7,2.9-4.2,4.1-4.2c0.2,0,0.4,0,0.6,0.1c0.9,0.4,0.5,1.3,0.3,1.8
			c-1.1,2.8-1.2,4.2-0.9,4.8c0.2-0.2,0.4-0.5,0.5-0.8c1.2-1.8,3.2-4.9,6.4-5.7c0.1,0,0.1,0,0.2,0c0,0,0,0,0,0c0.4,0,0.8,0.2,0.9,0.6
			c0.3,0.6,0,0.9-0.8,1.8c-0.5,0.5-1.4,1.6-1.6,1.9c-2,3.3-0.5,4.4-0.1,4.7c0.1,0.1,0.3,0.2,0.6,0.2c0.4,0,0.8-0.1,0.9-0.2
			c2.3-1.2,2.6-1.4,3.9-1.4c0,0,0.1,0,0.1,0c0.8,0,1.6,0.3,2.3,0.6c0.5,0.2,1,0.4,1.3,0.4c0.2,0,0.2,0,0.3,0c0.2,0,0.3,0,0.4-0.2
			c0.3-0.6,1.1-2,2.4-2c0.7,0,1.4,0.4,2.2,1.2c0.3,0.3,0.4,0.3,0.5,0.4c0.1,0,0.2,0,0.3,0c0.1,0,0.2,0,0.2,0
			c0.5-0.1,0.9-0.1,1.2-0.2c0.6-0.1,0.9-0.1,1.2-0.3c0.8-0.4,1.1-0.5,1.7-0.9c0.4-0.2,1-0.6,2-1.1c2-1,11.8-8.7,12.9-10.4l0.1-0.2
			c2.1-3.2,3.3-5.3,1-7.6c-0.8-0.8-2.1-1.3-3.1-1.3c-0.5,0-0.8,0.1-0.9,0.4c-0.2,0.2-0.5,1,0.3,3.1c0.2,0.6,0.1,1.3-0.2,1.8
			c-0.4,0.6-1,0.9-1.8,0.9c-1,0-2.3-0.6-3.6-1.8c-1.3-1.1-1.1-5.2,0.9-8C91.3,3,93.1,2,95.2,2c3.2,0,6.6,2.4,8.6,4.4
			c3.9,4.1,1.8,10.2-0.3,13.6l0.2-0.2c1.1-1,2.2-2.1,3.6-2.8c1.5-0.8,3.5-1.3,5.3-1.3c1.2,0,2.3,0.2,3.3,0.6
			c2.5,1.1,4.3,3.7,4.6,6.6c0.1,1.1-0.3,2.1-1.1,2.9c-0.5,0.5-1.2,1.2-2.2,1.2c-0.2,0-0.3,0-0.5-0.1c-0.8-0.2-2-0.9-2.4-1.8
			c-0.2-0.5-0.2-1,0-1.4c0.1-0.2,0.1-0.4,0-0.6c-0.3-0.6-1.4-1-2.3-1c-0.2,0-0.3,0-0.5,0c-1.1,0.2-2.4,1.7-3.4,2.9
			c-0.5,0.6-1,1.2-1.5,1.7c-1.7,1.6-3.7,3-6.2,4.6c0,0-0.1,0-0.1,0.1c1.4-0.2,2.7-0.4,3.8-0.5c1-0.1,2-0.2,3.1-0.2
			c1.6,0,3.2,0.2,5,0.5c3.1,0.6,5.7,3.2,7,5.6c1.5,2.9,0.8,6.6-1.6,8.4c-0.6,0.5-1.4,0.7-2.2,0.7l0,0c-1,0-1.9-0.5-2.4-1.3
			c-0.9-1.5-0.8-2.4,0.4-3.2c0.4-0.3,0.6-0.4,0.6-1.1c0-1.1-0.9-1.9-1.9-2.2c-0.7-0.2-1.3-0.3-2-0.3c-1.8,0-4.3,0.7-8.5,1.9
			c-4.7,1.4-7.4,2.2-9.1,2.3c-0.2,0.8-0.5,1.5-1.2,1.7c-0.1,0-0.3,0.1-0.4,0.1c-0.4,0-0.8-0.2-1-0.3c-0.2,0.4-0.4,0.9-1,1.1
			c-0.1,0-0.3,0.1-0.4,0.1c-0.3,0-0.5-0.1-0.8-0.2c-0.1,0.3-0.4,0.7-0.8,0.9c-0.2,0.1-0.4,0.2-0.6,0.2c-0.4,0-0.7-0.2-0.9-0.3
			c-0.1,0.4-0.3,1.1-1.1,1.4c-0.2,0.1-0.3,0.1-0.5,0.1c-0.5,0-0.9-0.3-1.2-0.5c-0.3-0.2-0.5-0.3-0.8-0.4c0,0-0.1,0-0.1,0
			c-0.1,0-0.1,0-0.2,0c0.4,0.3,0.8,0.7,1.3,1.3c0.1,0.2,0.3,0.3,0.4,0.5c0.2-0.3,0.5-0.5,1-0.5c0,0,0.1,0,0.1,0
			c0.5,0.1,0.8,0.4,1,0.8c0.2-0.2,0.5-0.3,0.8-0.3c0,0,0.1,0,0.1,0c0.7,0.1,1,0.6,1.2,1c0.2-0.2,0.6-0.4,1-0.4c0.1,0,0.2,0,0.3,0
			c0.6,0.1,0.8,0.6,0.9,0.9c0.3-0.2,0.6-0.3,0.9-0.3c0.2,0,0.4,0,0.5,0.1c1,0.5,1,2.1,0.7,3c-0.7,2.3-3.4,3.5-5.5,3.9
			c-0.6,0.1-1.2,0.1-1.8,0.1c-2.9,0-5.4-1.2-7.9-2.5c-1.9-1-2.6-1.3-3.1-1.3c-0.3,0-0.7,0.1-1.3,0.4l-0.3,0.1
			c-0.3,0.1-0.7,0.2-1,0.3c-0.9,0.3-1.5,0.4-2,1.1c-0.5,0.6-0.5,2-0.4,2.8c0.2,1.1,0.7,4.4-1.5,6.5c-1.2,1.2-2.7,1.4-4,1.4
			c-1,0-2.2-0.1-3.6-0.3c-3-0.3-5.6-0.6-6.7-2.6c-0.5-0.9-1.1-3.4-0.6-5.2c0,0,0,0,0,0c-0.2,0.1-0.4,0.3-0.5,0.4
			c-2.7,2.2-10.1,2.3-12.3,2.3c-2.3,0-10-0.2-11.4-2.5c-0.4,2.3-1.4,4.9-3.6,6.5C23,64.4,21.5,64.8,19.8,64.8z M68.4,33
			c-0.2,0-0.3,0-0.4,0.1c-0.4,0.2-0.6,0.9-0.6,1.1c0,0.1,0,0.3,0,0.4c0.7-0.2,1.8-0.5,2.5-0.8c-0.3-0.3-0.6-0.6-0.8-0.7
			C68.8,33.1,68.6,33,68.4,33z"/>
		<path class="st2" d="M95.2,3c3,0,6.2,2.3,7.8,4.1c3.7,3.9,1.4,9.9-0.8,13c-1.2,1.7-3.9,4.4-6.6,5.9c-2.7,1.5-8.2,4.1-11.3,5.5
			c0.1,0,0.2,0.1,0.3,0.2c5.1-1.9,14.8-6.4,19.4-10.7c1.2-1.1,2.4-2.3,3.8-3.1c1.3-0.7,3.1-1.2,4.9-1.2c1,0,2,0.2,2.9,0.5
			c2.2,1,3.8,3.4,4,5.8c0.1,0.7-0.1,1.5-0.8,2.1c-0.4,0.4-0.9,0.9-1.5,0.9c-0.1,0-0.2,0-0.2,0c-0.8-0.2-2.1-1.1-1.7-1.8
			c0.8-1.6-1.3-3.1-3.2-3.1c-0.2,0-0.4,0-0.7,0.1c-2,0.4-3.9,3.4-5.4,4.8c-1.5,1.4-3.4,2.8-6,4.5c-1.7,1.1-7.5,2.5-12.5,3.6
			c0.1,0.1,0.2,0.2,0.3,0.3c2.8-0.5,5.7-1,7.4-1.3c2.6-0.4,6.5-0.9,9.1-1.3c1-0.1,2-0.2,2.9-0.2c1.6,0,3.2,0.2,4.8,0.5
			c2.6,0.5,5.1,2.8,6.3,5.1c1.2,2.3,0.8,5.5-1.3,7.1c-0.5,0.3-1.1,0.5-1.6,0.5c-0.6,0-1.2-0.2-1.6-0.8c-1.4-2.3,1-1.1,1.1-3.7
			c0-1.5-1.2-2.8-2.6-3.2c-0.8-0.2-1.5-0.4-2.3-0.4c-2,0-4.4,0.7-8.8,2c-5,1.5-7.7,2.3-9.2,2.3c-0.2,0-0.3,0-0.5,0
			c0,0.2,0,1.6-0.6,1.8c0,0-0.1,0-0.1,0c-0.4,0-0.8-0.5-1.3-0.5c-0.1,0-0.1,0-0.2,0c-0.4,0.1-0.5,1.2-0.9,1.4c0,0-0.1,0-0.1,0
			c-0.3,0-0.7-0.4-1.1-0.4c0,0-0.1,0-0.1,0c-0.4,0.1-0.4,1-0.9,1.3c-0.1,0-0.1,0-0.2,0c-0.3,0-0.7-0.5-1.1-0.5c-0.1,0-0.1,0-0.2,0
			c-0.7,0.2-0.3,1.4-1,1.6c-0.1,0-0.1,0-0.2,0c-0.5,0-0.9-0.8-2-0.9c-0.1,0-0.2,0-0.2,0c-0.8,0-1.6,0.3-1.7,0.8
			c-0.1,0.5,0.8,0.7,2,2.2c0.6,0.7,0.8,1.2,1.2,1.2c0,0,0,0,0.1,0c0.5-0.1,0.6-0.9,0.9-0.9c0,0,0,0,0,0c0.4,0,0.4,1.3,0.8,1.4
			c0,0,0,0,0,0c0.4,0,0.7-0.9,1.1-0.9c0,0,0,0,0,0c0.5,0.1,0.5,1.3,1.1,1.4c0,0,0,0,0.1,0c0.5,0,0.8-0.8,1.2-0.8c0,0,0,0,0.1,0
			c0.4,0.1,0.3,1,0.8,1.2c0.1,0,0.1,0,0.2,0c0.4,0,0.9-0.6,1.2-0.6c0,0,0.1,0,0.1,0c0.4,0.2,0.4,1.1,0.2,1.8
			c-0.5,1.7-2.8,2.8-4.7,3.2c-0.5,0.1-1.1,0.1-1.6,0.1c-2.7,0-5.1-1.1-7.5-2.4c-2-1-2.8-1.4-3.6-1.4c-0.6,0-1.1,0.2-2,0.5
			c-1.3,0.5-2.5,0.5-3.4,1.7c-0.8,1-0.7,2.8-0.6,3.6c0.2,0.9,0.6,3.9-1.2,5.7c-0.8,0.8-1.9,1.1-3.3,1.1c-1,0-2.1-0.1-3.5-0.3
			c-2.8-0.3-5-0.5-5.9-2.1c-0.5-0.9-1.3-4.6,0.3-5.4c1.9-0.9,2.6-1.4,1.4-1.4c-0.1,0-0.3,0-0.5,0c-1.3,0.1-2.6,0.9-3.7,1.8
			c-1.8,1.5-6.9,2.1-11.7,2.1c-5.1,0-9.9-0.7-10.6-2.1c-0.1-0.2-0.2-0.3-0.3-1.1C28,51,27.2,49,26.7,47.8c-0.3-0.5-0.9-2.3-3.4-3.1
			c-0.4-0.1-0.9-0.2-1.3-0.2c-0.7,0-1.3,0.2-1.3,0.4c-0.1,0.4,2.1,0.8,3,1.3c3.2,2,3.2,7.4,3.3,8.8c0,2.6-0.9,5.8-3.3,7.7
			c-1.2,0.9-2.6,1.2-3.8,1.2c-1,0-1.8-0.2-2.2-0.2c-0.5-0.1-4.2-0.8-4.8-3c-0.3-1.1,0.5-1.4,1-3.8c0.3-1.4,0.5-3.8-0.3-4.2
			c-0.1,0-0.1,0-0.2,0c-0.4,0-0.9,0.7-1.4,0.7c0,0-0.1,0-0.1,0c-1.4-0.2-14.1-8.5-8.5-23.9C5.8,22.6,12,20.3,14.2,19
			c4.9-2.9,11.3-4.3,18-4.7c8.9-0.6,17.1,0.2,28.3-7.1c1-0.6,2.3-1.8,2.7-1.8c0,0,0,0,0.1,0c0.4,0.2-0.5,2.4-0.6,2.8
			c-2.1,5.7-11.8,9.5-14.1,10.3c-3.3,1.3-11.9,4.5-20.4,6c0,0-5,0.9-9,4.3c-0.9,0.7-1.6,1.6-1.4,1.8c0,0,0.1,0.1,0.1,0.1
			c0.2,0,0.6-0.2,1-0.2c0.2,0,0.4,0,0.5,0.1c0.9,0.4,1,0.6,1.5,0.7c0,0,0,0,0,0c0.6,0,0.8-1.1,1.4-1.2c0,0,0,0,0,0
			c0.2,0,0.5,1.2,1.5,1.2c0.1,0,0.1,0,0.2,0c0.8-0.1,0.5-2.5,1.8-2.7c0,0,0,0,0,0c0.2,0-0.1,2.6,1.6,2.6c0,0,0,0,0.1,0
			c0.9,0,1.2-3.7,2.1-3.7c0,0,0.1,0,0.1,0c0.1,0.1-0.4,3.3,2.4,3.3c0.1,0,0.2,0,0.2,0c1.1-0.1,0.9-5,2.6-5.6c0,0,0,0,0,0
			c0.1,0-0.3,4.6,2.1,4.9c0,0,0,0,0,0c1.1,0,1.5-6.3,3-6.3c0,0,0.1,0,0.1,0c0.1,0-0.8,5.3,1.6,5.8c0,0,0.1,0,0.1,0
			c1.4,0,2.4-6.6,4.6-6.6c0,0,0.1,0,0.1,0c0,0-2.1,5.1,0.1,6.3c0,0,0.1,0,0.1,0c0.9,0,2.9-6.8,4.9-6.8c0.1,0,0.2,0,0.3,0.1
			c0.1,0-2.9,5.6-0.5,7.1c0,0,0.1,0,0.1,0c1.1,0,4.5-6.9,5.9-6.9c0.1,0,0.1,0,0.1,0c0.1,0.1-2.9,5.7-0.2,7.1c0,0,0.1,0,0.1,0
			c0.9,0,2.9-5.8,7.2-6.8c0,0,0,0,0,0c0.1,0-1.9,2.1-2.3,2.8c-0.8,1.3-2.3,4.2,0.2,6.1c0.4,0.3,0.8,0.3,1.2,0.3
			c0.6,0,1.2-0.2,1.3-0.3c2.3-1.2,2.5-1.3,3.5-1.3c0,0,0,0,0.1,0c1.2,0,2.5,1.1,3.6,1.1c0.1,0,0.2,0,0.3,0c0.3-0.1,0.9,0,1.3-0.8
			c0.4-0.8,0.9-1.5,1.5-1.5c0.4,0,0.9,0.3,1.5,0.9c0.3,0.3,0.6,0.5,0.9,0.6c0.2,0.1,0.4,0.1,0.6,0.1c0.2,0,0.3,0,0.4,0
			c1.4-0.2,1.9-0.2,2.7-0.5c1.5-0.7,1.4-0.7,3.8-2c2-1,11.9-8.8,13.2-10.7c1.9-2.9,4-6,1-9c-0.9-0.9-2.5-1.6-3.8-1.6
			c-1.7,0-2.9,1.2-1.6,4.8c0.2,0.5-0.1,1.3-1.1,1.3c-0.7,0-1.7-0.4-3-1.5c-0.7-0.6-0.9-4,1-6.6C92.1,3.6,93.6,3,95.2,3 M74.8,32.8
			c0.2,0,2-0.9,1.9-1.1c-0.1-0.3-0.8-1-1.1-1c0,0-0.1,0-0.1,0c-0.6,0-1.1,0.6-1.1,1.3C74.3,32.2,74.4,32.7,74.8,32.8
			C74.7,32.8,74.8,32.8,74.8,32.8 M66.7,35.8c0.7,0,4.8-1.4,4.7-1.7c-0.2-0.6-1.6-1.8-2-1.9c-0.3-0.1-0.6-0.2-1-0.2
			c-0.3,0-0.6,0.1-0.9,0.2c-0.9,0.5-1.1,1.5-1.1,1.8c-0.1,0.4-0.2,1.2,0.2,1.7C66.6,35.8,66.6,35.8,66.7,35.8 M95.2,1
			c-2.4,0-4.5,1.1-6,3.2c-2.2,3-2.6,7.7-0.7,9.3c1.6,1.4,3,2,4.3,2c1.1,0,2-0.5,2.6-1.3c0.6-0.8,0.7-1.8,0.4-2.7
			c-0.4-1.2-0.4-1.9-0.4-2.1c0,0,0.1,0,0.1,0c0.7,0,1.8,0.5,2.4,1.1c1.6,1.6,1.2,2.8-1.1,6.3L96.6,17c-1,1.4-10.5,9-12.5,10.1
			c-1,0.5-1.6,0.9-2,1.1c-0.6,0.3-0.9,0.5-1.6,0.8c-0.2,0.1-0.4,0.1-0.9,0.2c-0.3,0-0.7,0.1-1.2,0.2c0,0,0,0,0,0c0,0,0,0-0.1-0.1
			c-1-1-1.9-1.5-2.9-1.5c-1.7,0-2.7,1.4-3.2,2.3c0,0,0,0,0,0c-0.2,0-0.6-0.2-0.8-0.3c-0.7-0.3-1.7-0.7-2.7-0.7c0,0-0.1,0-0.1,0
			c-1.5,0.1-2.1,0.3-4.3,1.5c-0.1,0-0.3,0.1-0.5,0.1c0,0,0,0-0.1,0c-0.4-0.3-1.1-1,0.4-3.4c0.2-0.3,1.1-1.3,1.5-1.8
			c0.8-0.9,1.5-1.6,0.9-2.8c-0.3-0.7-1-1.2-1.8-1.2c0,0,0,0,0,0c-0.2,0-0.3,0-0.5,0.1c-2.2,0.5-3.8,1.9-5.1,3.4
			c0.1-0.1,0.1-0.3,0.2-0.4c0.8-1.9,0-2.8-0.8-3.1c-0.3-0.1-0.6-0.2-1-0.2c0,0,0,0,0,0c-1.4,0-2.4,1.1-3.9,3.2c0-0.1,0-0.1,0.1-0.2
			c0.3-0.7,0.5-1.3,0.2-2.1c-0.2-0.5-0.7-0.9-1.2-1.1c-0.3-0.1-0.6-0.2-0.9-0.2c0,0,0,0,0,0c-1.3,0-2.3,0.8-3.2,2
			c0-0.2-0.1-0.3-0.2-0.5c-0.3-0.5-0.7-0.8-1.2-0.9c0.9-0.3,1.7-0.6,2.3-0.9c4.8-1.8,13.1-5.7,15.3-11.5c0.7-1.8,1.6-4.2-0.3-5.2
			c-0.3-0.2-0.7-0.3-1-0.3c0,0,0,0,0,0c-0.9,0-1.7,0.6-2.8,1.4c-0.3,0.3-0.7,0.5-1,0.7c-9.2,6-16.2,6.3-23.6,6.6
			c-1.2,0.1-2.5,0.1-3.8,0.2c-7.8,0.5-14.2,2.1-18.9,4.9c-0.3,0.2-0.6,0.3-1,0.5c-2.9,1.5-8.3,4.3-10.6,10.8
			c-3.1,8.6-0.9,15,1.5,18.9c2.9,4.8,7.1,7.5,8.6,7.7c0.1,0,0.2,0,0.3,0c0,0,0,0,0,0c0,0.3-0.1,0.7-0.2,1.1c-0.2,1-0.4,1.5-0.6,2
			c-0.3,0.7-0.7,1.5-0.4,2.7c0.7,3,4.3,4.1,6.3,4.5c0.5,0.1,1.4,0.3,2.6,0.3c2,0,3.6-0.5,5-1.6c1.9-1.4,3-3.5,3.6-5.5
			c2.5,1.4,7,1.7,10.8,1.7c2.6,0,8.3-0.2,11.7-1.8c0.1,1.5,0.5,3,0.9,3.7c1.4,2.5,4.3,2.8,7.5,3.1c1.4,0.1,2.6,0.3,3.7,0.3
			c1.4,0,3.2-0.2,4.7-1.7c1.7-1.7,2.3-4.1,1.7-7.4c-0.1-0.8,0-1.8,0.2-2c0.3-0.3,0.6-0.5,1.5-0.7c0.3-0.1,0.7-0.2,1.1-0.3l0.3-0.1
			c0.5-0.2,0.8-0.3,1-0.3c0.4,0,2,0.8,2.7,1.2c2.6,1.4,5.3,2.6,8.4,2.6c0.6,0,1.3-0.1,1.9-0.2c2.4-0.4,5.4-1.8,6.2-4.6
			c0.5-1.5,0.3-3.5-1.2-4.2c-0.3-0.1-0.6-0.2-1-0.2c-0.2,0-0.4,0-0.5,0.1c-0.3-0.3-0.6-0.5-1.1-0.6c-0.2,0-0.4-0.1-0.6-0.1
			c-0.3,0-0.5,0-0.7,0.1c-0.3-0.3-0.8-0.6-1.4-0.7c-0.1,0-0.2,0-0.3,0c-0.1,0-0.1,0-0.2,0c0,0,0-0.1,0.1-0.1c0.1,0,0.2,0,0.3,0
			c0.4,0,0.8-0.1,1.1-0.3c0.3-0.2,0.6-0.4,0.8-0.6c0.1,0,0.2,0,0.3,0c0.3,0,0.5,0,0.7-0.1c0.5-0.2,0.9-0.5,1.1-0.8
			c0.2,0,0.4,0.1,0.6,0.1c0.3,0,0.5,0,0.7-0.1c0.5-0.2,1.3-0.6,1.7-1.7c1.8-0.2,4.4-1,8.6-2.3c4.1-1.2,6.5-1.9,8.2-1.9
			c0.6,0,1.1,0.1,1.7,0.3c0.7,0.2,1.2,0.8,1.2,1.3c0,0.1,0,0.1,0,0.2c0,0-0.1,0.1-0.1,0.1c-1.6,1.1-1.8,2.6-0.7,4.5
			c0.7,1.1,1.9,1.8,3.3,1.8c1,0,2-0.3,2.8-0.9c2.8-2.1,3.6-6.3,1.9-9.6c-1.3-2.6-4.2-5.5-7.7-6.1c-1.9-0.3-3.6-0.5-5.2-0.5
			c-0.9,0-1.8,0.1-2.7,0.2c1-0.8,1.9-1.5,2.8-2.3c0.5-0.5,1.1-1.1,1.6-1.7c0.8-1,2.1-2.4,2.8-2.6c0.1,0,0.2,0,0.3,0
			c0.5,0,1.1,0.2,1.3,0.4c-0.2,0.7-0.2,1.4,0.1,2.1c0.5,1.2,1.9,2.1,3,2.3c0.2,0.1,0.5,0.1,0.7,0.1c1.3,0,2.3-0.9,2.8-1.4
			c1.1-1,1.6-2.4,1.4-3.8c-0.4-3.3-2.4-6.2-5.2-7.4c-1.1-0.5-2.3-0.7-3.7-0.7c-2,0-4.1,0.5-5.8,1.5c-0.2,0.1-0.3,0.2-0.5,0.3
			c1.2-3.8,1-7.8-1.8-10.7C103.7,4.9,99.8,1,95.2,1L95.2,1z M41.8,23c0.7-0.2,1.4-0.5,2-0.7c-0.8,0.8-1.4,2-1.8,3.2c0-0.3,0-0.6,0-1
			C42.1,23.9,42,23.4,41.8,23L41.8,23z M36.7,24.6c0.1,0,0.2-0.1,0.3-0.1c-0.1,0.2-0.1,0.4-0.2,0.6C36.8,24.9,36.8,24.7,36.7,24.6
			L36.7,24.6z M31,26c0.3-0.1,0.7-0.1,1-0.2c-0.2,0.4-0.3,0.8-0.4,1.2C31.5,26.6,31.3,26.2,31,26L31,26z M26.9,26.9
			c0.2-0.1,0.4-0.1,0.6-0.2c-0.1,0.1-0.2,0.3-0.2,0.4C27.1,27.1,27,27,26.9,26.9L26.9,26.9z"/>
	</g>
	<path class="st17" d="M62.6,43.7c0.5-0.1,0.7,1.2,1.8,1.6c0.7,0.2,1.3-0.2,2.9-1c2-1.1,3-1.7,3.3-1.8c1.8-0.6,4.6,0.2,5.4,0.7
		c0.9,0.6,3,2.8,4.1,2c-0.1,0.6-0.4,0.5-0.1,0.9c-0.1,1,0.5,1.3,0.7,1.7c2.3,3.7,7,0.8,8.3,3.7c0.1,0.2-0.2,0.5-0.3,0.7
		c-1.2,1.3-0.7-0.2-1.8-0.3c-0.5-0.1-0.6,1.1-1.2,1c-0.6-0.2-0.5-1.3-1.1-1.5c-0.6-0.2-1,1.1-1.7,1c-0.6-0.1-0.1-1.3-0.8-1.5
		c-0.7-0.2-1.1,1-1.8,0.8c-0.6-0.2-0.7-1.2-1.2-2.2c-0.7-1.5-1.6-0.3-2.7-1.8c-1.6-2.1-3.9-2.7-4.6-2.9c-0.7-0.2-1.2-0.2-1.5-0.2
		c-0.9,0.1-1.3,0.5-2.4,1c-1.2,0.6-2.2,1.1-3.3,0.9c-0.2,0-1.8-0.2-2.2-1.3C62.1,44.5,62.2,43.8,62.6,43.7z"/>
</g>
</svg>
