<?xml version="1.0" encoding="utf-8"?>
<!-- Generator: Adobe Illustrator 19.1.0, SVG Export Plug-In . SVG Version: 6.00 Build 0)  -->
<svg version="1.1" id="Layer_1" xmlns="http://www.w3.org/2000/svg" xmlns:xlink="http://www.w3.org/1999/xlink" x="0px" y="0px"
	 viewBox="0 0 199 70" style="enable-background:new 0 0 199 70;" xml:space="preserve">
<style type="text/css">
	.st0{fill:#080100;}
	.st1{fill:none;stroke:#FFFFFF;stroke-width:2;stroke-miterlimit:10;}
	.st2{fill:#FFFFFF;}
	.st3{fill:none;stroke:#FFFFFF;stroke-width:2;stroke-linecap:round;stroke-miterlimit:10;}
	.st4{fill:none;stroke:#FFFFFF;stroke-width:2;stroke-linecap:round;stroke-linejoin:round;stroke-miterlimit:10;}
	.st5{fill:#231F20;}
	.st6{fill:url(#SVGID_5_);stroke:#FFFFFF;stroke-width:2;stroke-miterlimit:10;}
	.st7{fill:url(#SVGID_6_);}
	.st8{fill:url(#SVGID_7_);}
	.st9{fill:url(#SVGID_8_);}
	.st10{fill:url(#SVGID_9_);}
	.st11{fill:url(#SVGID_10_);}
	.st12{fill:none;stroke:#FFFFFF;stroke-miterlimit:10;}
	.st13{fill:#1C75BC;}
	.st14{fill:#EAEAEA;}
	.st15{fill:#EF4136;}
	.st16{fill:#006838;stroke:#231F20;stroke-linecap:round;stroke-linejoin:round;stroke-miterlimit:10;}
	.st17{fill:#ED1C24;}
	.st18{fill:#006838;}
	.st19{fill:#FFFFFF;stroke:#231F20;stroke-linecap:round;stroke-miterlimit:10;}
	.st20{fill:#FFDE17;}
	.st21{fill:#C49A6C;}
	.st22{fill:#C2B59B;}
	.st23{fill:#A52C38;}
</style>
<g id="New_Symbol_1_">
</g>
<g id="New_Symbol">
</g>
<g>
	<path class="st2" d="M4.8,45.9c-0.4,0.5-0.8,1-1.1,1.5c-0.4,0.5-0.7,1-0.9,1.5c-0.2,0.5-0.4,1-0.7,1.4c-0.3,0.4-0.6,0.8-0.9,1.2
		c-0.3,0.4-0.6,0.9-0.8,1.3S0,53.9,0,54.5c0,0.3,0.1,0.5,0.4,0.7c0.3,0.1,0.6,0.2,0.9,0.2c0.4,0,0.7-0.2,0.8-0.6
		c0.1-0.4,0.2-0.8,0.2-1.2C3,53,3.6,52.4,4,51.7C4.4,51,4.7,50.3,5,49.6c0.3-0.7,0.7-1.5,1-2.2c0.4-0.7,0.8-1.4,1.4-2
		c0.7,0.4,1.3,0.8,1.8,1.4c0.5,0.6,0.9,1.2,1.2,1.9c0.4,0.7,0.7,1.4,1,2.1c0.3,0.7,0.8,1.4,1.3,2c0.3,0.4,0.7,0.9,1.2,1.3
		c0.5,0.4,0.7,1,0.7,1.7c0.8,0,1.5-0.2,2-0.6c-0.3-1.2-0.7-2.4-1.2-3.5s-1.1-2.2-1.8-3.3c-0.7-1.1-1.3-2.1-2-3.2
		c-0.7-1.1-1.3-2.2-1.9-3.3c0.5-1,1-1.9,1.6-2.8c0.6-0.9,1.3-1.6,2.1-2.3c0.1-0.2,0.3-0.4,0.6-0.6c0.3-0.2,0.5-0.5,0.8-0.7
		c0.3-0.3,0.5-0.5,0.7-0.8c0.2-0.3,0.3-0.6,0.3-0.9c0-0.2-0.1-0.6-0.3-1c-1-1.1-1.9-2.2-2.7-3.3c-0.8-1.1-1.5-2.3-2.2-3.4
		c0-1,0.3-1.9,0.8-2.7c0.5-0.8,1-1.5,1.7-2.2c0.6-0.7,1.3-1.4,2-2c0.7-0.7,1.3-1.4,1.7-2.3c0.1-0.2,0.1-0.5,0.1-0.8
		c0-0.3-0.1-0.5-0.1-0.7c-0.1-0.2-0.3-0.3-0.6-0.3c-0.8,0-1.5,0.4-2.2,1.2C13.2,17.1,12.6,18,12,19s-1.1,1.9-1.7,2.8
		c-0.6,0.9-1.2,1.4-1.8,1.6C7.6,22,6.7,20.5,6,19c-0.8-1.5-1.8-2.9-3.1-4.2c-0.2-0.1-0.4-0.2-0.5-0.2c-0.3,0-0.5,0.1-0.7,0.4
		c-0.2,0.3-0.4,0.5-0.7,0.7c0.2,0.7,0.4,1.4,0.7,2c0.3,0.6,0.7,1.2,1,1.8c0.4,0.6,0.7,1.2,1.1,1.8c0.3,0.6,0.6,1.2,0.8,2
		c0.4,0.6,0.9,1,1.2,1.4c0.4,0.4,0.7,0.9,0.9,1.6c-0.8,1.3-1.5,2.5-2.2,3.7c-0.7,1.2-1.6,2.4-2.6,3.4c0,0.7,0.1,1.4,0.3,2
		c0.2,0.6,0.4,1.2,0.7,1.7c0.3,0.5,0.6,1.1,0.9,1.6c0.3,0.5,0.6,1,0.8,1.6c0.6,0.4,0.9,0.9,1.2,1.3s0.4,0.9,0.4,1.3
		c0,0.6-0.1,1.1-0.4,1.6C5.5,44.9,5.2,45.4,4.8,45.9z M5.3,35.2c-0.3-0.5-0.4-1-0.4-1.5c0-0.3,0.1-0.7,0.4-1.2
		c0.3-0.5,0.6-1,0.9-1.5c0.4-0.5,0.7-0.9,1.1-1.2c0.4-0.3,0.7-0.5,0.9-0.5c0.4,0,0.8,0.2,1.1,0.5c0.4,0.3,0.7,0.7,1.1,1.2
		c0.4,0.5,0.7,1,1,1.5c0.3,0.5,0.6,0.9,0.9,1.2c-0.5,1-1.2,2.1-2,3.3C9.4,38.1,8.7,39,8,39.8c-0.1-0.5-0.4-1-0.7-1.5
		c-0.4-0.5-0.7-1-1.1-1.5C5.9,36.2,5.6,35.7,5.3,35.2z"/>
	<path class="st2" d="M37.3,32c0-0.3-0.1-0.6-0.2-0.9c-0.2-0.3-0.3-0.6-0.6-1c-0.2-0.3-0.4-0.7-0.6-1c-0.2-0.3-0.3-0.7-0.3-1
		c-0.4-1.2-0.8-2.4-1.5-3.5c-0.6-1.1-1.2-2.2-1.9-3.3c-0.6-1.1-1.2-2.2-1.8-3.4s-0.9-2.4-1.1-3.7h-1.8c-1.6,3.2-3.2,6.5-4.6,9.8
		c-1.5,3.3-2.6,6.8-3.4,10.3c1.3,1.9,2.5,3.9,3.5,5.9c1,2,2.2,3.9,3.5,5.8c-0.9,1.5-1.6,3-2,4.6s-0.9,3.1-1.3,4.5
		c0.2,0.2,0.4,0.3,0.6,0.4c0.2,0.1,0.4,0.1,0.7,0.1c0.8-0.4,1.3-1.1,1.5-2c0.3-0.9,0.4-1.8,0.5-2.7c0.4-1,0.7-1.7,0.9-2
		c0.3-0.4,0.6-0.6,0.9-0.6c0.4,0,0.7,0.2,1.1,0.7s0.8,1,1.2,1.5c0.4,0.6,0.9,1.1,1.3,1.5s1,0.7,1.6,0.7l1-1.4
		c-0.4-0.7-0.9-1.3-1.5-2c-0.6-0.6-1.1-1.3-1.6-1.9s-0.9-1.3-1.3-2c-0.4-0.7-0.6-1.4-0.7-2.2c1.1-1.8,2.3-3.7,3.6-5.8
		C34.4,35.7,35.8,33.8,37.3,32z M31.3,37c-0.6,0.9-1.2,1.7-1.7,2.6c-0.5,0.9-1,1.8-1.3,2.7l-0.5-0.2L22.5,33c0-1.2,0.2-2.4,0.7-3.6
		c0.5-1.2,1-2.3,1.6-3.4c0.6-1.1,1.2-2.3,1.7-3.4c0.6-1.1,0.9-2.3,1.1-3.5c1.1,2.1,2.3,4.1,3.5,6.2c1.2,2.1,2.3,4.2,3.2,6.5
		c-0.4,0.9-0.8,1.8-1.4,2.7C32.4,35.3,31.9,36.2,31.3,37z"/>
	<path class="st2" d="M40.9,39.9c-0.2,2.2-0.3,4.1-0.4,5.8c-0.1,1.7-0.2,2.9-0.2,3.7c0,1.1,0.1,2.3,0.3,3.5c0.2,1.2,0.6,2.1,1.2,2.9
		c0.3-0.3,0.8-0.6,1.5-1s1.4-0.9,2.2-1.5s1.7-1.1,2.6-1.8c0.9-0.6,1.7-1.2,2.4-1.9c0.7-0.6,1.3-1.3,1.8-1.9c0.5-0.7,0.7-1.3,0.7-1.9
		l-6.6-8.3c-1.1-0.6-1.8-1.2-2.2-2c-0.4-0.8-0.6-1.6-0.6-2.5c0-0.2,0-0.6,0.1-1.1c0.1-0.5,0.2-1,0.3-1.6c0.1-0.6,0.2-1.2,0.3-1.8
		c0.1-0.6,0.1-1.2,0.1-1.7c0-0.5-0.1-0.9-0.2-1.4c-0.6-0.8-0.8-1.5-0.8-2.3c0-0.3,0.1-0.8,0.2-1.3c0.1-0.6,0.2-1.1,0.2-1.5
		c0-0.4-0.1-0.9-0.2-1.3c0.4-0.2,0.7-0.4,1.1-0.4c0.5,0,1,0.2,1.6,0.6c0.5,0.4,1.1,0.8,1.6,1.3s1,0.9,1.5,1.3
		c0.5,0.4,0.9,0.6,1.4,0.6c0.4,0,0.8-0.2,1.1-0.7c-0.4-1-0.9-1.8-1.6-2.6s-1.5-1.4-2.4-1.9c-0.9-0.6-1.8-1-2.7-1.5
		c-0.9-0.4-1.8-0.9-2.7-1.3c-0.5,0.1-0.8,0.4-1,0.7c-0.2,0.4-0.3,0.8-0.3,1.2c0,1.4,0.1,2.8,0.2,4.4c0.2,1.5,0.2,3.1,0.2,4.8
		c0,2.5-0.1,5-0.2,7.5C41.2,35.4,41,37.8,40.9,39.9z M43.4,49.8c0-1.2,0.1-2.4,0.4-3.5c0.3-1.2,0.4-2.4,0.4-3.6
		c0-0.8-0.1-1.5-0.2-2.2c0.6,0.3,1.1,0.7,1.6,1.2c0.5,0.5,0.9,0.9,1.3,1.4c0.4,0.5,0.8,1,1.2,1.5c0.4,0.5,0.8,1,1.2,1.5
		c-0.3,0.7-0.6,1.2-1,1.7s-0.9,0.9-1.4,1.4c-0.5,0.5-1,0.9-1.5,1.3c-0.5,0.4-1,0.9-1.4,1.5h-0.5c-0.1-0.4-0.1-0.7-0.1-1.1
		S43.4,50.1,43.4,49.8z"/>
	<path class="st2" d="M73.4,32c0-0.3-0.1-0.6-0.2-0.9c-0.2-0.3-0.3-0.6-0.6-1c-0.2-0.3-0.4-0.7-0.6-1c-0.2-0.3-0.3-0.7-0.3-1
		c-0.4-1.2-0.8-2.4-1.5-3.5c-0.6-1.1-1.2-2.2-1.9-3.3c-0.6-1.1-1.2-2.2-1.8-3.4s-0.9-2.4-1.1-3.7h-1.8c-1.6,3.2-3.2,6.5-4.6,9.8
		c-1.5,3.3-2.6,6.8-3.4,10.3c1.3,1.9,2.5,3.9,3.5,5.9c1,2,2.2,3.9,3.5,5.8c-0.9,1.5-1.6,3-2,4.6s-0.9,3.1-1.3,4.5
		c0.2,0.2,0.4,0.3,0.6,0.4c0.2,0.1,0.4,0.1,0.7,0.1c0.8-0.4,1.3-1.1,1.5-2c0.3-0.9,0.4-1.8,0.5-2.7c0.4-1,0.7-1.7,0.9-2
		c0.3-0.4,0.6-0.6,0.9-0.6c0.4,0,0.7,0.2,1.1,0.7s0.8,1,1.2,1.5c0.4,0.6,0.9,1.1,1.3,1.5s1,0.7,1.6,0.7l1-1.4
		c-0.4-0.7-0.9-1.3-1.5-2c-0.6-0.6-1.1-1.3-1.6-1.9s-0.9-1.3-1.3-2c-0.4-0.7-0.6-1.4-0.7-2.2c1.1-1.8,2.3-3.7,3.6-5.8
		C70.6,35.7,71.9,33.8,73.4,32z M67.4,37c-0.6,0.9-1.2,1.7-1.7,2.6c-0.5,0.9-1,1.8-1.3,2.7l-0.5-0.2L58.6,33c0-1.2,0.2-2.4,0.7-3.6
		c0.5-1.2,1-2.3,1.6-3.4c0.6-1.1,1.2-2.3,1.7-3.4c0.6-1.1,0.9-2.3,1.1-3.5c1.1,2.1,2.3,4.1,3.5,6.2c1.2,2.1,2.3,4.2,3.2,6.5
		c-0.4,0.9-0.8,1.8-1.4,2.7C68.6,35.3,68,36.2,67.4,37z"/>
	<path class="st2" d="M92.6,22.9c0.2,0.2,0.5,0.3,0.8,0.3c0.2,0,0.4-0.1,0.5-0.2c0.1-0.1,0.2-0.3,0.2-0.4c0-0.3-0.1-0.6-0.4-0.9
		c-0.3-0.3-0.5-0.6-0.7-0.9c-0.8-0.4-1.5-1-2.1-1.6s-1.3-1.3-1.9-2s-1.3-1.3-2-1.8c-0.7-0.6-1.5-0.9-2.3-1.1c-0.4,0.6-1.1,1.3-2,2.1
		c-0.9,0.8-1.8,1.6-2.8,2.4c-0.9,0.8-1.7,1.7-2.4,2.6c-0.7,0.9-1,1.8-1,2.7c0,0.3,0.1,0.6,0.4,0.8c0.3,0.2,0.6,0.3,0.9,0.3
		c0.5,0,0.9-0.3,1.1-0.8c0.3-0.6,0.5-1,0.7-1.5c0.2-0.3,0.5-0.6,0.8-1c0.3-0.4,0.6-0.8,0.9-1.2s0.7-0.7,1-0.9
		c0.4-0.3,0.8-0.4,1.2-0.4c0.3,0.6,0.5,1.1,0.6,1.8c0.1,0.6,0.1,1.3,0.1,1.9c0,1.4-0.1,2.8-0.4,4.3c-0.3,1.5-0.4,3-0.4,4.4
		c0,0.7,0.1,1.4,0.2,2c-0.1,1.9-0.1,3.8-0.1,5.5s0,3.4-0.1,5.1c0,1.6,0,3.3-0.1,4.9c0,1.6-0.1,3.3-0.2,4.9c0.3,0.2,0.5,0.5,0.6,0.9
		c0.1,0.4,0.4,0.5,0.7,0.5c0.4,0,0.7-0.2,0.9-0.5c0.2-0.3,0.3-0.6,0.3-0.8c0-0.3-0.1-0.6-0.1-0.9c-0.1-0.3-0.1-0.6-0.1-0.9
		c-0.1-0.4-0.2-0.7-0.2-1c0-0.3-0.1-0.7-0.1-1c0-0.4,0-0.7,0.1-1c0-0.3,0.1-0.7,0.2-1V37c0.4-3,0.6-6,0.6-8.8s0.1-5.8,0.1-8.8
		c0.2-0.3,0.4-0.4,0.6-0.4s0.5,0.1,0.7,0.3c0.3,0.2,0.5,0.5,0.8,0.7c0.3,0.3,0.6,0.6,0.9,0.9c0.3,0.3,0.6,0.5,0.9,0.7l0.3-0.1
		c0.3,0,0.6,0.1,0.9,0.3c0.3,0.2,0.5,0.4,0.7,0.6S92.4,22.8,92.6,22.9z"/>
	<path class="st2" d="M91.3,26.2c-0.2,0-0.4-0.1-0.6-0.1c-0.7,0-1.1,0.3-1.2,0.8c-0.2,0.5-0.2,1-0.2,1.6c0.3,0.3,0.5,0.6,0.7,0.9
		c0.2,0.3,0.5,0.5,1,0.5c0.4-0.4,0.6-0.8,0.6-1.4c0-0.1,0-0.2-0.1-0.3c0-0.1-0.1-0.3-0.1-0.4c0-0.5,0.1-0.9,0.2-1.2
		C91.6,26.3,91.5,26.2,91.3,26.2z"/>
	<path class="st2" d="M103.3,40.5c-0.2-0.1-0.4-0.1-0.6-0.1c-0.4,0-0.7,0.1-0.9,0.4c-0.3,0.3-0.4,0.6-0.4,0.9c0,0.2,0.1,0.4,0.2,0.7
		c0.3,0.1,0.5,0.3,0.8,0.7c0.3,0.3,0.5,0.5,0.9,0.5c0.2,0,0.3-0.1,0.4-0.3c0.1-0.2,0.1-0.3,0.1-0.4c0-0.2-0.1-0.5-0.2-0.7
		c-0.1-0.2-0.2-0.4-0.2-0.7c0-0.1,0.1-0.3,0.2-0.5C103.6,40.7,103.5,40.6,103.3,40.5z"/>
	<path class="st2" d="M103,21.5c-1.4-1.5-3-2.9-4.8-4.1c-0.3,0.1-0.5,0.2-0.8,0.4c-0.2,0.2-0.4,0.5-0.4,0.8c0,0.7,0.2,1.3,0.7,2
		c0.5,0.6,1.1,1.3,1.8,1.9c0.7,0.6,1.5,1.3,2.4,1.9c0.9,0.6,1.7,1.2,2.5,1.9c0.8,0.6,1.4,1.3,2,1.9c0.6,0.6,0.9,1.3,1,1.9
		c0.1,2.5,0.2,5,0.2,7.5c0.1,2.5,0.1,5,0.1,7.5c0,1.7,0,3.3-0.1,4.8c-0.1,1.5-0.3,3-0.6,4.4c0.3,0.2,0.4,0.5,0.4,0.8
		c0,0.3,0.2,0.5,0.5,0.5c0.1,0,0.2,0,0.3-0.1c0.4-0.9,0.6-1.9,0.8-3.1s0.3-2.5,0.4-3.8c0.1-1.3,0.1-2.7,0.2-4.2
		c0-1.5,0.1-2.9,0.2-4.3c0-3.6,0-7.2,0-10.8c0-3.5-0.1-7.2-0.3-11.1c-0.1-0.2-0.2-0.4-0.3-0.7s-0.2-0.6-0.4-0.8
		c-0.2-0.3-0.3-0.5-0.5-0.7c-0.2-0.2-0.4-0.3-0.6-0.3c-0.4,0-0.7,0.3-1,0.9c0,1.2,0.2,2.5,0.5,3.8c0.3,1.3,0.5,2.6,0.5,3.9
		c0,0.1,0,0.3,0.1,0.4c0,0.2,0.1,0.3,0.1,0.5c0,0.4-0.2,0.8-0.5,1.1C105.9,24.6,104.4,23,103,21.5z"/>
	<path class="st2" d="M119.3,18.7c-0.8-0.9-1.5-1.7-2.2-2.3c-0.7-0.7-1.5-1.3-2.4-1.8c-0.7,0.4-1.2,0.8-1.5,1.4
		c-0.3,0.6-0.4,1.2-0.4,1.9c0,0.8,0.1,1.5,0.3,2.2c0.2,0.7,0.3,1.3,0.3,1.9c0,0.3,0,0.7-0.1,1.1c0,0.4-0.1,0.9-0.1,1.3
		c0,1.1,0,2.3,0.1,3.6c0.1,1.3,0.2,2.6,0.2,3.9c0.1,1.3,0.2,2.5,0.3,3.6c0.1,1.1,0.1,2,0.1,2.6c-0.1,1.3-0.2,2.6-0.2,4.1
		c-0.1,1.5-0.1,2.9-0.1,4.2c0.1,0.3,0.2,0.7,0.3,1.2c0.1,0.5,0.2,0.9,0.2,1.2c0,0.7-0.1,1.3-0.3,1.8c-0.2,0.5-0.3,1.1-0.3,1.8
		c0,0.7,0.1,1.3,0.4,1.9s0.7,1.1,1.4,1.5c0.4-0.6,0.7-1.4,0.9-2.4c0.1-1,0.2-2.1,0.2-3.2c0-0.9,0-1.8-0.1-2.6s-0.1-1.4-0.1-1.8V36
		c0-0.3,0-0.9-0.1-1.6c-0.1-0.8-0.1-1.6-0.1-2.3c0-0.5,0-1,0.1-1.4s0.2-0.8,0.3-1.1c1.6,0.9,3.1,1.9,4.5,3.1s2.7,2.7,3.7,4.4
		c0,0.4,0.1,0.8,0.1,1.2c0,0.4,0,0.8,0,1.2c0,0.4,0,1-0.1,1.7c0,0.8-0.1,1.6-0.1,2.5s-0.1,1.8-0.1,2.7c0,0.9-0.1,1.8-0.1,2.5
		c0,0.9,0.1,1.8,0.2,2.7c0.1,0.9,0.3,1.7,0.5,2.4c0.6,0.7,1,1.1,1.2,1.2c0.3,0.2,0.5,0.2,0.7,0.2c0.3,0,0.6-0.1,0.8-0.4
		c0-2-0.1-4.2-0.2-6.5c-0.1-2.3-0.2-4.5-0.2-6.7c-0.1-2.2-0.2-4.1-0.2-5.9c-0.1-1.8-0.1-3.1-0.1-4.1c0-0.8,0-1.7,0.1-3
		c0.1-1.2,0.1-2.6,0.2-4s0.2-2.9,0.2-4.4s0.1-2.9,0.1-4.2c0-0.5-0.1-0.9-0.3-1.4c-0.2-0.4-0.5-0.7-1-0.7c-0.2,0-0.3,0-0.4,0.1
		c-0.6,0.8-0.9,1.8-1.1,3.1c-0.2,1.3-0.3,2.5-0.3,3.6c0,0.9,0,1.7,0.1,2.4c0,0.7,0.1,1.1,0.1,1.4c-1.2-1.2-2.2-2.4-3.1-3.4
		C120.9,20.5,120,19.6,119.3,18.7z M123.4,27c0.5,0.3,0.9,0.6,1.2,1l0.4,4.3c-0.6-0.4-1.1-1-1.6-1.7c-0.5-0.7-1-1.3-1.6-1.8
		c-0.4-0.2-0.9-0.5-1.4-0.8c-0.5-0.4-1-0.7-1.5-1.1c-0.5-0.4-1-0.7-1.5-0.9c-0.5-0.3-0.9-0.4-1.3-0.4c0.1-0.7,0.2-1.4,0.1-2.3
		c0-0.8,0-1.7,0.2-2.5c0.8,0.1,1.4,0.4,1.8,0.8c0.5,0.4,0.9,0.9,1.3,1.5c0.4,0.6,0.8,1.1,1.3,1.6c0.5,0.5,1,0.9,1.8,1.1
		C122.6,26.4,122.9,26.7,123.4,27z"/>
</g>
</svg>
